<svg width="12" height="12" viewBox="0 0 12 12" fill="none" xmlns="http://www.w3.org/2000/svg">
<path fill-rule="evenodd" clip-rule="evenodd" d="M2 4.25606C2.46917 4.09023 2.97405 4 3.5 4C5.95208 4 7.94608 5.96124 7.99892 8.40065L12 6L2 0V4.25606Z" fill="#B6B8CD"/>
<path fill-rule="evenodd" clip-rule="evenodd" d="M3 5V8H4V5H3ZM3.5 11C4.88071 11 6 9.88072 6 8.50001C6 7.6821 5.60722 6.95593 5 6.49982V5.33682C6.18247 5.89855 7 7.10381 7 8.50001C7 10.433 5.433 12 3.5 12C1.567 12 0 10.433 0 8.50001C0 7.10381 0.817526 5.89855 2 5.33682V6.49982C1.39278 6.95593 1 7.6821 1 8.50001C1 9.88072 2.11929 11 3.5 11Z" fill="#B6B8CD"/>
</svg>
