<svg width="48" height="48" viewBox="0 0 48 48" fill="none" xmlns="http://www.w3.org/2000/svg">
<rect x="2.5" y="6.5" width="43" height="35" stroke="white"/>
<rect x="2" y="6" width="44" height="3.3" fill="#008BEF"/>
<rect x="6" y="12" width="36" height="26" fill="white"/>
<path d="M29.6251 25.1339C29.6251 24.7374 29.5934 24.3387 29.5259 23.9486H24.1129V26.1949H27.2127C27.0841 26.9194 26.6707 27.5603 26.0655 27.9675V29.4251H27.9149C29.0009 28.4091 29.6251 26.9087 29.6251 25.1339Z" fill="#4285F4"/>
<path d="M24.1129 30.8332C25.6607 30.8332 26.966 30.3166 27.917 29.425L26.0676 27.9675C25.5531 28.3233 24.8889 28.5247 24.115 28.5247C22.6178 28.5247 21.3483 27.498 20.8929 26.1177H18.9845V27.6202C19.9587 29.59 21.943 30.8332 24.1129 30.8332Z" fill="#34A853"/>
<path d="M20.8908 26.1178C20.6504 25.3933 20.6504 24.6089 20.8908 23.8844V22.3818H18.9845C18.1705 24.0301 18.1705 25.9721 18.9845 27.6204L20.8908 26.1178Z" fill="#FBBC04"/>
<path d="M24.1129 21.4751C24.931 21.4623 25.7218 21.7752 26.3144 22.3496L27.9528 20.6842C26.9153 19.6939 25.5384 19.1495 24.1129 19.1667C21.943 19.1667 19.9587 20.4098 18.9845 22.3818L20.8907 23.8843C21.3441 22.5018 22.6157 21.4751 24.1129 21.4751Z" fill="#EA4335"/>
</svg>
