<svg width="32" height="32" viewBox="0 0 32 32" fill="none" xmlns="http://www.w3.org/2000/svg">
<rect width="32" height="32" fill="#373A58"/>
<path fill-rule="evenodd" clip-rule="evenodd" d="M17 9H16V11H13V12H20V11H17V9ZM21 13H12V18H13V16H14V18H15V14H16V18H17V14H18V18H19V16H20V18H21V13ZM9 15H11V16H9V19H23V16H22V15H23H24V16V19V20H23H9H8V19V16V15H9ZM9.99998 21H8.99998V22H9.99998V21ZM12 21H11V22H12V21ZM20 21H21V22H20V21ZM14 21H13V22H14V21ZM18 21H19V22H18V21ZM23 21H22V22H23V21ZM15 21H17V22H15V21Z" fill="#F7FAFF"/>
</svg>
