<svg width="32" height="32" viewBox="0 0 32 32" fill="none" xmlns="http://www.w3.org/2000/svg">
<path fill-rule="evenodd" clip-rule="evenodd" d="M21.7454 20C22.5365 18.8662 23 17.4883 23 16C23 12.134 19.866 9 16 9C12.134 9 9 12.134 9 16C9 17.4883 9.46348 18.8662 10.2546 20H21.7454ZM22.2454 21C23.3433 19.6304 24 17.8919 24 16C24 11.5817 20.4183 8 16 8C11.5817 8 8 11.5817 8 16C8 17.8919 8.65672 19.6304 9.75463 21H22.2454Z" fill="#B6B8CD"/>
<path d="M10 22H11V23H10V22Z" fill="#B6B8CD"/>
<path d="M12 22H13V23H12V22Z" fill="#B6B8CD"/>
<path d="M18 22H14V23H18V22Z" fill="#B6B8CD"/>
<path d="M21 22H22V23H21V22Z" fill="#B6B8CD"/>
<path d="M20 22H19V23H20V22Z" fill="#B6B8CD"/>
<path d="M15.2722 15.1198L12.3235 12.6187L11.6766 13.3813L14.6252 15.8823C14.562 16.0481 14.5274 16.228 14.5274 16.416C14.5274 17.2444 15.199 17.916 16.0274 17.916C16.8559 17.916 17.5274 17.2444 17.5274 16.416C17.5274 15.5876 16.8559 14.916 16.0274 14.916C15.752 14.916 15.494 14.9902 15.2722 15.1198Z" fill="#FFC05C"/>
</svg>
