<svg width="36" height="36" viewBox="0 0 36 36" fill="none" xmlns="http://www.w3.org/2000/svg">
<path fill-rule="evenodd" clip-rule="evenodd" d="M15 7.29944C11.2092 8.2253 8.22532 11.2092 7.29945 15H8.33239C9.21311 11.7627 11.7627 9.21309 15 8.33237V7.29944ZM20 8.33238V7.29944C23.7908 8.22531 26.7747 11.2092 27.7006 15H26.6676C25.7869 11.7627 23.2373 9.2131 20 8.33238ZM20 26.6676C23.2373 25.7869 25.7869 23.2373 26.6676 20H27.7006C26.7747 23.7908 23.7908 26.7747 20 27.7005V26.6676ZM8.33239 20C9.21311 23.2373 11.7627 25.7869 15 26.6676V27.7006C11.2092 26.7747 8.22532 23.7908 7.29945 20H8.33239Z" fill="#F7FAFF"/>
<circle cx="17.5" cy="17.5" r="14" stroke="#F7FAFF"/>
<path fill-rule="evenodd" clip-rule="evenodd" d="M18 0V10H17V0H18ZM0 18H10V17H0V18ZM18 36V26H17V36H18ZM25 18H35V17H25V18Z" fill="#F7FAFF"/>
<circle cx="17.5" cy="17.5" r="2" stroke="#1A90FF"/>
</svg>
