<svg width="36" height="36" viewBox="0 0 36 36" fill="none" xmlns="http://www.w3.org/2000/svg">
<path fill-rule="evenodd" clip-rule="evenodd" d="M15 4.32214C9.67613 5.48448 5.48454 9.67607 4.3222 15H5.34789C6.47473 10.2296 10.2297 6.47467 15 5.34783V4.32214ZM30.6522 15C29.5253 10.2296 25.7704 6.47467 21 5.34783V4.32214C26.3239 5.48448 30.5155 9.67607 31.6778 15H30.6522ZM21 30.6521C25.7704 29.5253 29.5253 25.7703 30.6522 21H31.6778C30.5155 26.3239 26.3239 30.5154 21 31.6778V30.6521ZM5.34789 21C6.47473 25.7703 10.2297 29.5253 15 30.6521V31.6778C9.67613 30.5154 5.48454 26.3239 4.3222 21H5.34789Z" fill="#1A90FF"/>
<circle cx="18" cy="18" r="9.5" stroke="#F7FAFF"/>
<circle cx="27" cy="27" r="5.5" fill="#EB553E" stroke="#EB553E"/>
<path fill-rule="evenodd" clip-rule="evenodd" d="M28.7383 29.4454C28.2479 29.7946 27.6479 30 27 30C25.3431 30 24 28.6569 24 27C24 26.3521 24.2054 25.7521 24.5546 25.2617L28.7383 29.4454ZM29.4454 28.7383L25.2617 24.5546C25.7521 24.2054 26.3521 24 27 24C28.6569 24 30 25.3431 30 27C30 27.6479 29.7946 28.2479 29.4454 28.7383ZM31 27C31 29.2091 29.2091 31 27 31C24.7909 31 23 29.2091 23 27C23 24.7909 24.7909 23 27 23C29.2091 23 31 24.7909 31 27Z" fill="#F7FAFF"/>
</svg>
