<svg width="16" height="16" viewBox="0 0 16 16" fill="none" xmlns="http://www.w3.org/2000/svg">
<path fill-rule="evenodd" clip-rule="evenodd" d="M8 2C9.864 2 11.4313 3.27572 11.8745 5.00129C11.9163 5.00043 11.9581 5 12 5C12.3106 5 12.6156 5.0236 12.9135 5.0691C12.4773 2.75252 10.4433 1 8 1C5.23858 1 3 3.23858 3 6C3 6.08512 3.00213 6.16975 3.00633 6.25383C1.25524 6.86979 0 8.53831 0 10.5C0 12.9853 2.01472 15 4.5 15H7.52779C7.25338 14.6934 7.01003 14.3584 6.80269 14H4.5C2.567 14 1 12.433 1 10.5C1 8.9758 1.97487 7.67672 3.33816 7.19717L4.04236 6.94946L4.00508 6.20389C4.00171 6.13643 4 6.06846 4 6C4 3.79086 5.79086 2 8 2ZM15 11C15 12.6569 13.6569 14 12 14V15C14.2091 15 16 13.2091 16 11C16 8.79086 14.2091 7 12 7C9.79086 7 8 8.79086 8 11H6.5L8.5 13L10.5 11H9C9 9.34315 10.3431 8 12 8C13.6569 8 15 9.34315 15 11Z" fill="#B6B8CD"/>
</svg>
