<svg width="36" height="36" viewBox="0 0 36 36" fill="none" xmlns="http://www.w3.org/2000/svg">
<path fill-rule="evenodd" clip-rule="evenodd" d="M15 6H21V11.5858L18 14.5858L15 11.5858V6ZM18.7071 15.2929L22 12V6V5H21H15H14V6V12L17.2929 15.2929L18 16L18.7071 15.2929ZM6 21V15H11.5858L14.5858 18L11.5858 21H6ZM15.2929 17.2929L12 14H6H5V15V21V22H6H12L15.2929 18.7071L16 18L15.2929 17.2929ZM15 30V24.4142L18 21.4142L21 24.4142V30H15ZM22 24L18.7071 20.7071L18 20L17.2929 20.7071L14 24V30V31H15H21H22V30V24ZM24.4142 21H30V15H24.4142L21.4142 18L24.4142 21ZM20.7071 17.2929L24 14H30H31V15V21V22H30H24L20.7071 18.7071L20 18L20.7071 17.2929Z" fill="#F7FAFF"/>
<circle cx="18" cy="18" r="16.5" stroke="#1A90FF"/>
</svg>
