<svg width="36" height="36" viewBox="0 0 36 36" fill="none" xmlns="http://www.w3.org/2000/svg">
<rect x="2.5" y="2.5" width="31" height="31" stroke="#F7FAFF"/>
<mask id="path-2-inside-1" fill="white">
<path fill-rule="evenodd" clip-rule="evenodd" d="M6.2015 15.7985L4 18L6.2015 20.2015C6.06917 19.4878 6 18.752 6 18C6 17.248 6.06917 16.5122 6.2015 15.7985ZM15.7985 6.2015C16.5122 6.06917 17.248 6 18 6C18.752 6 19.4878 6.06917 20.2015 6.2015L18 4L15.7985 6.2015ZM29.7985 15.7985C29.9308 16.5122 30 17.248 30 18C30 18.752 29.9308 19.4878 29.7985 20.2015L32 18L29.7985 15.7985ZM20.2015 29.7985C19.4878 29.9308 18.752 30 18 30C17.248 30 16.5122 29.9308 15.7985 29.7985L18 32L20.2015 29.7985Z"/>
</mask>
<path d="M4 18L3.29289 17.2929L2.58579 18L3.29289 18.7071L4 18ZM6.2015 15.7985L7.18474 15.9808L7.77195 12.8138L5.49439 15.0914L6.2015 15.7985ZM6.2015 20.2015L5.49439 20.9086L7.77195 23.1862L7.18474 20.0192L6.2015 20.2015ZM15.7985 6.2015L15.0914 5.49439L12.8138 7.77195L15.9808 7.18474L15.7985 6.2015ZM20.2015 6.2015L20.0192 7.18474L23.1862 7.77195L20.9086 5.49439L20.2015 6.2015ZM18 4L18.7071 3.29289L18 2.58579L17.2929 3.29289L18 4ZM29.7985 15.7985L30.5056 15.0914L28.2281 12.8138L28.8153 15.9808L29.7985 15.7985ZM29.7985 20.2015L28.8153 20.0192L28.2281 23.1862L30.5056 20.9086L29.7985 20.2015ZM32 18L32.7071 18.7071L33.4142 18L32.7071 17.2929L32 18ZM20.2015 29.7985L20.9086 30.5056L23.1862 28.2281L20.0192 28.8153L20.2015 29.7985ZM15.7985 29.7985L15.9808 28.8153L12.8138 28.2281L15.0914 30.5056L15.7985 29.7985ZM18 32L17.2929 32.7071L18 33.4142L18.7071 32.7071L18 32ZM4.70711 18.7071L6.9086 16.5056L5.49439 15.0914L3.29289 17.2929L4.70711 18.7071ZM6.9086 19.4944L4.70711 17.2929L3.29289 18.7071L5.49439 20.9086L6.9086 19.4944ZM7.18474 20.0192C7.06351 19.3654 7 18.6905 7 18H5C5 18.8134 5.07483 19.6103 5.21826 20.3838L7.18474 20.0192ZM7 18C7 17.3095 7.06351 16.6346 7.18474 15.9808L5.21826 15.6162C5.07483 16.3897 5 17.1866 5 18H7ZM15.9808 7.18474C16.6346 7.06351 17.3095 7 18 7V5C17.1866 5 16.3897 5.07483 15.6162 5.21826L15.9808 7.18474ZM18 7C18.6905 7 19.3654 7.06351 20.0192 7.18474L20.3838 5.21826C19.6103 5.07483 18.8134 5 18 5V7ZM17.2929 4.70711L19.4944 6.9086L20.9086 5.49439L18.7071 3.29289L17.2929 4.70711ZM16.5056 6.9086L18.7071 4.70711L17.2929 3.29289L15.0914 5.49439L16.5056 6.9086ZM28.8153 15.9808C28.9365 16.6346 29 17.3095 29 18H31C31 17.1866 30.9252 16.3897 30.7817 15.6162L28.8153 15.9808ZM29 18C29 18.6905 28.9365 19.3654 28.8153 20.0192L30.7817 20.3838C30.9252 19.6103 31 18.8134 31 18H29ZM31.2929 17.2929L29.0914 19.4944L30.5056 20.9086L32.7071 18.7071L31.2929 17.2929ZM29.0914 16.5056L31.2929 18.7071L32.7071 17.2929L30.5056 15.0914L29.0914 16.5056ZM20.0192 28.8153C19.3654 28.9365 18.6905 29 18 29V31C18.8134 31 19.6103 30.9252 20.3838 30.7817L20.0192 28.8153ZM18 29C17.3095 29 16.6346 28.9365 15.9808 28.8153L15.6162 30.7817C16.3897 30.9252 17.1866 31 18 31V29ZM18.7071 31.2929L16.5056 29.0914L15.0914 30.5056L17.2929 32.7071L18.7071 31.2929ZM19.4944 29.0914L17.2929 31.2929L18.7071 32.7071L20.9086 30.5056L19.4944 29.0914Z" fill="#1A90FF" mask="url(#path-2-inside-1)"/>
</svg>
