<svg width="36" height="36" viewBox="0 0 36 36" fill="none" xmlns="http://www.w3.org/2000/svg">
<path opacity="0.7" d="M29.5 27C29.5 28.3654 28.3801 29.7362 26.2617 30.7954C24.1732 31.8397 21.2529 32.5 18 32.5C14.7471 32.5 11.8268 31.8397 9.73833 30.7954C7.6199 29.7362 6.5 28.3654 6.5 27C6.5 25.6346 7.6199 24.2638 9.73833 23.2046C11.8268 22.1603 14.7471 21.5 18 21.5C21.2529 21.5 24.1732 22.1603 26.2617 23.2046C28.3801 24.2638 29.5 25.6346 29.5 27Z" stroke="#F7FAFF"/>
<path d="M24.5 26.5H11.5V19C11.5 15.4101 14.4101 12.5 18 12.5C21.5899 12.5 24.5 15.4101 24.5 19V26.5Z" stroke="#F7FAFF"/>
<circle cx="18" cy="7" r="3.5" stroke="#F7FAFF"/>
</svg>
