<svg width="72" height="72" viewBox="0 0 72 72" fill="none" xmlns="http://www.w3.org/2000/svg">
<circle cx="36" cy="36" r="35.5" stroke="#1A90FF"/>
<rect x="21.5044" y="31.6111" width="15" height="26" transform="rotate(-45 21.5044 31.6111)" fill="#F7FAFF" stroke="#F7FAFF"/>
<path fill-rule="evenodd" clip-rule="evenodd" d="M38.1537 22.0966L39.8896 23.8325L39.1825 24.5396L36.7076 22.0647L36.3541 21.7112L36.7076 21.3576L39.1825 18.8828L39.8896 19.5899L38.3641 21.1153C41.9955 22.2172 44.5704 23.5379 46.5035 25.5017C48.577 27.608 49.8619 30.4032 50.9765 34.3021L50.015 34.577C48.9177 30.7384 47.6908 28.1332 45.7909 26.2032C44.0345 24.4191 41.6599 23.1685 38.1537 22.0966Z" fill="#1A90FF"/>
<path fill-rule="evenodd" clip-rule="evenodd" d="M33.8469 48.9034L32.111 47.1675L32.8181 46.4604L35.293 48.9353L35.6465 49.2888L35.293 49.6424L32.8181 52.1172L32.111 51.4101L33.6365 49.8847C30.0051 48.7828 27.4303 47.4621 25.4971 45.4983C23.4236 43.392 22.1387 40.5968 21.0241 36.6979L21.9856 36.423C23.0829 40.2616 24.3098 42.8668 26.2097 44.7968C27.9661 46.5809 30.3407 47.8315 33.8469 48.9034Z" fill="#1A90FF"/>
</svg>
