<svg width="48" height="48" viewBox="0 0 48 48" fill="none" xmlns="http://www.w3.org/2000/svg">
<mask id="path-1-inside-1" fill="white">
<path fill-rule="evenodd" clip-rule="evenodd" d="M8 24C9.65788 16.5566 16.192 11 24 11C31.808 11 38.3421 16.5566 40 24C38.3421 31.4434 31.808 37 24 37C16.192 37 9.65791 31.4434 8 24Z"/>
</mask>
<path d="M8 24L7.02392 23.7826L6.97549 24L7.02392 24.2174L8 24ZM40 24L40.9761 24.2174L41.0245 24L40.9761 23.7826L40 24ZM8.97608 24.2174C10.537 17.2093 16.6827 12 24 12V10C15.7013 10 8.77876 15.9039 7.02392 23.7826L8.97608 24.2174ZM24 12C31.3173 12 37.463 17.2093 39.0239 24.2174L40.9761 23.7826C39.2212 15.9039 32.2987 10 24 10V12ZM39.0239 23.7826C37.463 30.7906 31.3173 36 24 36V38C32.2987 38 39.2212 32.0961 40.9761 24.2174L39.0239 23.7826ZM24 36C16.6827 36 10.537 30.7907 8.97608 23.7826L7.02392 24.2174C8.77879 32.0961 15.7013 38 24 38V36Z" fill="#1A90FF" mask="url(#path-1-inside-1)"/>
<mask id="path-3-inside-2" fill="white">
<path fill-rule="evenodd" clip-rule="evenodd" d="M12 24C13.2434 18.2743 18.144 14 24 14C29.856 14 34.7566 18.2743 36 24C34.7566 29.7257 29.856 34.0001 24 34.0001C18.144 34.0001 13.2434 29.7257 12 24Z"/>
</mask>
<path fill-rule="evenodd" clip-rule="evenodd" d="M12 24C13.2434 18.2743 18.144 14 24 14C29.856 14 34.7566 18.2743 36 24C34.7566 29.7257 29.856 34.0001 24 34.0001C18.144 34.0001 13.2434 29.7257 12 24Z" fill="#F7FAFF"/>
<path d="M12 24L11.0228 23.7878L10.9767 24L11.0228 24.2122L12 24ZM36 24L36.9772 24.2122L37.0233 24L36.9772 23.7878L36 24ZM12.9772 24.2122C14.1292 18.9075 18.6531 15 24 15V13C17.6349 13 12.3576 17.6412 11.0228 23.7878L12.9772 24.2122ZM24 15C29.3469 15 33.8708 18.9075 35.0228 24.2122L36.9772 23.7878C35.6424 17.6412 30.3651 13 24 13V15ZM35.0228 23.7878C33.8708 29.0925 29.3469 33.0001 24 33.0001V35.0001C30.3651 35.0001 35.6424 30.3589 36.9772 24.2122L35.0228 23.7878ZM24 33.0001C18.6531 33.0001 14.1292 29.0925 12.9772 23.7878L11.0228 24.2122C12.3576 30.3589 17.6349 35.0001 24 35.0001V33.0001Z" fill="#F7FAFF" mask="url(#path-3-inside-2)"/>
</svg>
