<svg width="72" height="72" viewBox="0 0 72 72" fill="none" xmlns="http://www.w3.org/2000/svg">
<circle cx="36" cy="36" r="35.5" stroke="#1A90FF"/>
<mask id="path-2-inside-1" fill="white">
<path fill-rule="evenodd" clip-rule="evenodd" d="M20.9537 36.0001C22.5128 29.1292 28.6574 24 36 24C43.3426 24 49.4872 29.1292 51.0462 35.9999C49.4872 42.8708 43.3426 48 36 48C28.6574 48 22.5128 42.8708 20.9537 36.0001Z"/>
</mask>
<path fill-rule="evenodd" clip-rule="evenodd" d="M20.9537 36.0001C22.5128 29.1292 28.6574 24 36 24C43.3426 24 49.4872 29.1292 51.0462 35.9999C49.4872 42.8708 43.3426 48 36 48C28.6574 48 22.5128 42.8708 20.9537 36.0001Z" fill="#F7FAFF"/>
<path d="M20.9537 36.0001L19.9785 35.7788L19.9283 36.0001L19.9785 36.2214L20.9537 36.0001ZM51.0462 35.9999L52.0215 36.2212L52.0717 35.9999L52.0215 35.7787L51.0462 35.9999ZM21.9289 36.2213C23.3869 29.796 29.1346 25 36 25V23C28.1802 23 21.6387 28.4624 19.9785 35.7788L21.9289 36.2213ZM36 25C42.8654 25 48.613 29.7959 50.071 36.2212L52.0215 35.7787C50.3613 28.4624 43.8197 23 36 23V25ZM50.071 35.7787C48.6131 42.204 42.8654 47 36 47V49C43.8198 49 50.3613 43.5376 52.0215 36.2212L50.071 35.7787ZM36 47C29.1346 47 23.387 42.2041 21.9289 35.7788L19.9785 36.2214C21.6387 43.5376 28.1802 49 36 49V47Z" fill="#F7FAFF" mask="url(#path-2-inside-1)"/>
<path fill-rule="evenodd" clip-rule="evenodd" d="M27 31.2977C25.9076 32.6477 25.1128 34.2484 24.7153 36C25.1128 37.7516 25.9076 39.3522 27 40.7022V38.9775C26.4377 38.0675 26.0096 37.0658 25.7433 36C26.0095 34.9342 26.4377 33.9324 27 33.0224V31.2977ZM45 38.9776C45.5624 38.0675 45.9905 37.0658 46.2568 35.9999C45.9905 34.934 45.5624 33.9323 45 33.0223V31.2976C46.0924 32.6476 46.8872 34.2483 47.2847 35.9999C46.8873 37.7515 46.0924 39.3522 45 40.7022V38.9776Z" fill="#080A1F"/>
<circle cx="36" cy="36" r="2.5" stroke="#1A90FF"/>
</svg>
