<svg width="72" height="72" viewBox="0 0 72 72" fill="none" xmlns="http://www.w3.org/2000/svg">
<path fill-rule="evenodd" clip-rule="evenodd" d="M36.1613 70.9996C36.1076 70.9999 36.0538 71 36 71C17.0587 71 1.63155 55.9537 1.0189 37.1613H18.5806V36.1613H1.00036C1.00012 36.1076 1 36.0538 1 36C1 16.67 16.67 1 36 1C55.33 1 71 16.67 71 36C71 36.0538 70.9999 36.1076 70.9996 36.1613H53.4193V37.1613H70.9811C70.381 55.5682 55.5681 70.381 37.1613 70.9811V53.4194H36.1613V70.9996ZM36.1613 71.9996C36.1076 71.9999 36.0538 72 36 72C16.5063 72 0.63144 56.5061 0.0183764 37.1613H0V36.1613H0.000353813C0.000118256 36.1076 0 36.0538 0 36C0 16.1177 16.1177 0 36 0C55.8823 0 72 16.1177 72 36C72 36.0538 71.9999 36.1076 71.9996 36.1613H72V37.1613H71.9816C71.3808 56.1205 56.1205 71.3808 37.1613 71.9816V72H36.1613V71.9996Z" fill="#F7FAFF"/>
<circle cx="36" cy="36" r="17.5" stroke="#F7FAFF"/>
<path d="M16.4284 56L16.2737 50.2286L11.3528 53.2482L16.4284 56ZM16.0034 15.7366C11.4793 23.0345 8.9654 28.8973 8.55876 34.6105C8.15111 40.3379 9.86547 45.8425 13.6416 52.4142L14.5087 51.916C10.7872 45.4394 9.16795 40.1369 9.55624 34.6815C9.94554 29.212 12.3571 23.5165 16.8533 16.2634L16.0034 15.7366Z" fill="#1A90FF"/>
<path d="M55.5716 56L55.7263 50.2286L60.6472 53.2482L55.5716 56ZM55.9966 15.7366C60.5207 23.0345 63.0346 28.8973 63.4412 34.6105C63.8489 40.3379 62.1345 45.8425 58.3584 52.4142L57.4913 51.916C61.2128 45.4394 62.8321 40.1369 62.4438 34.6815C62.0545 29.212 59.6429 23.5165 55.1467 16.2634L55.9966 15.7366Z" fill="#1A90FF"/>
</svg>
