<svg width="48" height="48" viewBox="0 0 48 48" fill="none" xmlns="http://www.w3.org/2000/svg">
<path fill-rule="evenodd" clip-rule="evenodd" d="M20.3333 5.35352C12.7809 6.83011 6.83012 12.7809 5.35352 20.3333H6.37374C7.8222 13.3343 13.3344 7.82219 20.3333 6.37374V5.35352ZM41.6263 20.3333C40.2241 13.5581 35.014 8.17616 28.3333 6.52504V5.49639C35.5676 7.18394 41.2136 13.0045 42.6465 20.3333H41.6263ZM28.3333 41.475C34.7933 39.8784 39.8784 34.7933 41.475 28.3333H42.5036C40.8676 35.3469 35.3469 40.8676 28.3333 42.5036V41.475ZM6.52503 28.3333C8.17614 35.014 13.5581 40.2241 20.3333 41.6263V42.6465C13.0045 41.2136 7.18392 35.5676 5.49637 28.3333H6.52503Z" fill="#1A90FF"/>
<circle cx="24" cy="24" r="13" fill="#F7FAFF"/>
<circle cx="36" cy="36" r="7.5" fill="#EB553E" stroke="#EB553E"/>
<path fill-rule="evenodd" clip-rule="evenodd" d="M38.4528 39.1599C37.7755 39.6865 36.9244 40 36 40C33.7909 40 32 38.2091 32 36C32 35.0756 32.3135 34.2245 32.8401 33.5472L38.4528 39.1599ZM39.1599 38.4528L33.5472 32.8401C34.2245 32.3135 35.0756 32 36 32C38.2091 32 40 33.7909 40 36C40 36.9244 39.6865 37.7755 39.1599 38.4528ZM41 36C41 38.7614 38.7614 41 36 41C33.2386 41 31 38.7614 31 36C31 33.2386 33.2386 31 36 31C38.7614 31 41 33.2386 41 36Z" fill="#F7FAFF"/>
</svg>
