<svg width="48" height="48" viewBox="0 0 48 48" fill="none" xmlns="http://www.w3.org/2000/svg">
<rect x="3.16663" y="3.16675" width="41.6667" height="41.6667" stroke="#F7FAFF"/>
<mask id="path-2-inside-1" fill="white">
<path fill-rule="evenodd" clip-rule="evenodd" d="M8.2687 21.0646L5.33337 23.9999L8.2687 26.9352C8.09227 25.9837 8.00004 25.0026 8.00004 23.9999C8.00004 22.9973 8.09227 22.0161 8.2687 21.0646ZM21.0647 8.26858C22.0163 8.09214 22.9974 7.99992 24 7.99992C25.0027 7.99992 25.9838 8.09215 26.9354 8.26858L24 5.33325L21.0647 8.26858ZM39.7314 21.0646C39.9078 22.0161 40 22.9973 40 23.9999C40 25.0026 39.9078 25.9837 39.7314 26.9353L42.6667 23.9999L39.7314 21.0646ZM26.9354 39.7313C25.9838 39.9077 25.0027 39.9999 24 39.9999C22.9974 39.9999 22.0163 39.9077 21.0647 39.7313L24 42.6666L26.9354 39.7313Z"/>
</mask>
<path fill-rule="evenodd" clip-rule="evenodd" d="M8.2687 21.0646L5.33337 23.9999L8.2687 26.9352C8.09227 25.9837 8.00004 25.0026 8.00004 23.9999C8.00004 22.9973 8.09227 22.0161 8.2687 21.0646ZM21.0647 8.26858C22.0163 8.09214 22.9974 7.99992 24 7.99992C25.0027 7.99992 25.9838 8.09215 26.9354 8.26858L24 5.33325L21.0647 8.26858ZM39.7314 21.0646C39.9078 22.0161 40 22.9973 40 23.9999C40 25.0026 39.9078 25.9837 39.7314 26.9353L42.6667 23.9999L39.7314 21.0646ZM26.9354 39.7313C25.9838 39.9077 25.0027 39.9999 24 39.9999C22.9974 39.9999 22.0163 39.9077 21.0647 39.7313L24 42.6666L26.9354 39.7313Z" fill="#1A90FF"/>
<path d="M5.33337 23.9999L4.62627 23.2928L3.91916 23.9999L4.62627 24.707L5.33337 23.9999ZM8.2687 21.0646L9.25194 21.2469L9.83915 18.0799L7.5616 20.3575L8.2687 21.0646ZM8.2687 26.9352L7.5616 27.6424L9.83916 29.9199L9.25194 26.7529L8.2687 26.9352ZM21.0647 8.26858L20.3576 7.56147L18.08 9.83903L21.247 9.25182L21.0647 8.26858ZM26.9354 8.26858L26.7531 9.25182L29.92 9.83903L27.6425 7.56147L26.9354 8.26858ZM24 5.33325L24.7071 4.62615L24 3.91904L23.2929 4.62615L24 5.33325ZM39.7314 21.0646L40.4385 20.3575L38.1609 18.0799L38.7481 21.2469L39.7314 21.0646ZM39.7314 26.9353L38.7481 26.7529L38.1609 29.9199L40.4385 27.6424L39.7314 26.9353ZM42.6667 23.9999L43.3738 24.707L44.0809 23.9999L43.3738 23.2928L42.6667 23.9999ZM26.9354 39.7313L27.6425 40.4384L29.9201 38.1608L26.7531 38.748L26.9354 39.7313ZM21.0647 39.7313L21.247 38.748L18.08 38.1608L20.3576 40.4384L21.0647 39.7313ZM24 42.6666L23.2929 43.3737L24 44.0808L24.7071 43.3737L24 42.6666ZM6.04048 24.707L8.97581 21.7717L7.5616 20.3575L4.62627 23.2928L6.04048 24.707ZM8.97581 26.2281L6.04048 23.2928L4.62627 24.707L7.5616 27.6424L8.97581 26.2281ZM9.25194 26.7529C9.0866 25.8612 9.00004 24.9411 9.00004 23.9999H7.00004C7.00004 25.064 7.09793 26.1062 7.28546 27.1176L9.25194 26.7529ZM9.00004 23.9999C9.00004 23.0587 9.0866 22.1386 9.25194 21.2469L7.28546 20.8823C7.09793 21.8937 7.00004 22.9358 7.00004 23.9999H9.00004ZM21.247 9.25182C22.1387 9.08648 23.0588 8.99992 24 8.99992V6.99992C22.9359 6.99992 21.8938 7.09781 20.8824 7.28534L21.247 9.25182ZM24 8.99992C24.9412 8.99992 25.8613 9.08648 26.7531 9.25182L27.1177 7.28534C26.1063 7.09781 25.0641 6.99992 24 6.99992V8.99992ZM23.2929 6.04036L26.2283 8.97569L27.6425 7.56147L24.7071 4.62615L23.2929 6.04036ZM21.7718 8.97569L24.7071 6.04036L23.2929 4.62615L20.3576 7.56147L21.7718 8.97569ZM38.7481 21.2469C38.9135 22.1386 39 23.0587 39 23.9999H41C41 22.9358 40.9021 21.8937 40.7146 20.8823L38.7481 21.2469ZM39 23.9999C39 24.9411 38.9135 25.8612 38.7481 26.7529L40.7146 27.1176C40.9021 26.1062 41 25.064 41 23.9999H39ZM41.9596 23.2928L39.0243 26.2281L40.4385 27.6424L43.3738 24.707L41.9596 23.2928ZM39.0243 21.7717L41.9596 24.707L43.3738 23.2928L40.4385 20.3575L39.0243 21.7717ZM26.7531 38.748C25.8613 38.9134 24.9413 38.9999 24 38.9999V40.9999C25.0641 40.9999 26.1063 40.902 27.1177 40.7145L26.7531 38.748ZM24 38.9999C23.0588 38.9999 22.1387 38.9134 21.247 38.748L20.8824 40.7145C21.8938 40.902 22.9359 40.9999 24 40.9999V38.9999ZM24.7071 41.9595L21.7718 39.0241L20.3576 40.4384L23.2929 43.3737L24.7071 41.9595ZM26.2283 39.0241L23.2929 41.9595L24.7071 43.3737L27.6425 40.4384L26.2283 39.0241Z" fill="#1A90FF" mask="url(#path-2-inside-1)"/>
<circle cx="24" cy="24" r="3.5" stroke="#F7FAFF"/>
</svg>
