<svg width="96" height="96" viewBox="0 0 96 96" fill="none" xmlns="http://www.w3.org/2000/svg">
<circle cx="48" cy="48" r="44.5" stroke="#1A90FF"/>
<mask id="path-2-inside-1" fill="white">
<path fill-rule="evenodd" clip-rule="evenodd" d="M17.8323 40.8344L10.6667 48L17.8323 55.1657C17.288 52.8656 17 50.4664 17 48C17 45.5336 17.288 43.1344 17.8323 40.8344ZM40.8344 17.8323C43.1344 17.288 45.5336 17 48 17C49.9595 17 51.8766 17.1818 53.7352 17.5295L47.4362 11.2305L40.8344 17.8323ZM78.4705 42.2648C78.8182 44.1234 79 46.0405 79 48C79 49.9595 78.8182 51.8766 78.4705 53.7353L84.2058 48L78.4705 42.2648ZM53.7353 78.4705C51.8766 78.8182 49.9595 79 48 79C45.5336 79 43.1344 78.712 40.8343 78.1677L47.4362 84.7696L53.7353 78.4705Z"/>
</mask>
<path fill-rule="evenodd" clip-rule="evenodd" d="M17.8323 40.8344L10.6667 48L17.8323 55.1657C17.288 52.8656 17 50.4664 17 48C17 45.5336 17.288 43.1344 17.8323 40.8344ZM40.8344 17.8323C43.1344 17.288 45.5336 17 48 17C49.9595 17 51.8766 17.1818 53.7352 17.5295L47.4362 11.2305L40.8344 17.8323ZM78.4705 42.2648C78.8182 44.1234 79 46.0405 79 48C79 49.9595 78.8182 51.8766 78.4705 53.7353L84.2058 48L78.4705 42.2648ZM53.7353 78.4705C51.8766 78.8182 49.9595 79 48 79C45.5336 79 43.1344 78.712 40.8343 78.1677L47.4362 84.7696L53.7353 78.4705Z" fill="#F7FAFF"/>
<path d="M10.6667 48L9.95955 47.2929L9.25244 48L9.95955 48.7071L10.6667 48ZM17.8323 40.8344L18.8054 41.0646L19.6168 37.6356L17.1252 40.1273L17.8323 40.8344ZM17.8323 55.1657L17.1252 55.8728L19.6169 58.3644L18.8054 54.9354L17.8323 55.1657ZM40.8344 17.8323L40.1273 17.1252L37.6356 19.6169L41.0646 18.8054L40.8344 17.8323ZM53.7352 17.5295L53.5513 18.5124L56.7263 19.1063L54.4423 16.8224L53.7352 17.5295ZM47.4362 11.2305L48.1433 10.5234L47.4362 9.81626L46.7291 10.5234L47.4362 11.2305ZM78.4705 42.2648L79.1776 41.5577L76.8937 39.2737L77.4876 42.4486L78.4705 42.2648ZM78.4705 53.7353L77.4876 53.5514L76.8937 56.7263L79.1776 54.4424L78.4705 53.7353ZM84.2058 48L84.9129 48.7071L85.62 48L84.9129 47.2929L84.2058 48ZM53.7353 78.4705L54.4424 79.1776L56.7263 76.8937L53.5514 77.4876L53.7353 78.4705ZM40.8343 78.1677L41.0646 77.1946L37.6356 76.3831L40.1272 78.8748L40.8343 78.1677ZM47.4362 84.7696L46.7291 85.4767L47.4362 86.1838L48.1433 85.4767L47.4362 84.7696ZM11.3738 48.7071L18.5394 41.5415L17.1252 40.1273L9.95955 47.2929L11.3738 48.7071ZM18.5394 54.4586L11.3738 47.2929L9.95955 48.7071L17.1252 55.8728L18.5394 54.4586ZM18.8054 54.9354C18.2789 52.7102 18 50.3883 18 48H16C16 50.5445 16.2972 53.021 16.8592 55.3959L18.8054 54.9354ZM18 48C18 45.6117 18.2789 43.2898 18.8054 41.0646L16.8592 40.6041C16.2972 42.9791 16 45.4555 16 48H18ZM41.0646 18.8054C43.2898 18.2789 45.6117 18 48 18V16C45.4555 16 42.9791 16.2972 40.6041 16.8592L41.0646 18.8054ZM48 18C49.8975 18 51.753 18.176 53.5513 18.5124L53.9191 16.5465C52.0001 16.1876 50.0215 16 48 16V18ZM46.7291 11.9376L53.0281 18.2366L54.4423 16.8224L48.1433 10.5234L46.7291 11.9376ZM41.5415 18.5394L48.1433 11.9376L46.7291 10.5234L40.1273 17.1252L41.5415 18.5394ZM77.4876 42.4486C77.8239 44.247 78 46.1025 78 48H80C80 45.9785 79.8124 43.9999 79.4535 42.0809L77.4876 42.4486ZM78 48C78 49.8975 77.8239 51.7531 77.4876 53.5514L79.4535 53.9191C79.8124 52.0001 80 50.0215 80 48H78ZM83.4986 47.2929L77.7634 53.0282L79.1776 54.4424L84.9129 48.7071L83.4986 47.2929ZM77.7634 42.9719L83.4986 48.7071L84.9129 47.2929L79.1776 41.5577L77.7634 42.9719ZM53.5514 77.4876C51.7531 77.8239 49.8975 78 48 78V80C50.0215 80 52.0001 79.8124 53.9191 79.4535L53.5514 77.4876ZM48 78C45.6117 78 43.2898 77.7211 41.0646 77.1946L40.604 79.1408C42.979 79.7028 45.4555 80 48 80V78ZM48.1433 84.0625L41.5414 77.4606L40.1272 78.8748L46.7291 85.4767L48.1433 84.0625ZM53.0282 77.7634L46.7291 84.0625L48.1433 85.4767L54.4424 79.1776L53.0282 77.7634Z" fill="#F7FAFF" mask="url(#path-2-inside-1)"/>
<path d="M37 43C37 36.9249 41.9249 32 48 32V43H37Z" fill="#F7FAFF"/>
<path d="M59 43C59 36.9249 54.0751 32 48 32V43H59Z" fill="#1A90FF"/>
<path d="M37 45H59V53C59 59.0751 54.0751 64 48 64C41.9249 64 37 59.0751 37 53V45Z" fill="#F7FAFF"/>
</svg>
