<svg width="48" height="48" viewBox="0 0 48 48" fill="none" xmlns="http://www.w3.org/2000/svg">
<path fill-rule="evenodd" clip-rule="evenodd" d="M20.5 11.516C16.0774 12.5962 12.5962 16.0774 11.516 20.5H12.5484C13.5841 16.6309 16.6309 13.5841 20.5 12.5484V11.516ZM26.3333 12.5484V11.516C30.7559 12.5962 34.2371 16.0774 35.3173 20.5H34.2849C33.2491 16.6309 30.2024 13.5841 26.3333 12.5484ZM26.3333 34.2849C30.2024 33.2491 33.2491 30.2024 34.2849 26.3333H35.3173C34.2371 30.7559 30.7559 34.2371 26.3333 35.3173V34.2849ZM12.5484 26.3333C13.5841 30.2024 16.6309 33.2492 20.5 34.2849V35.3173C16.0774 34.2371 12.5962 30.7559 11.516 26.3333H12.5484Z" fill="#F7FAFF"/>
<circle cx="23.4167" cy="23.4167" r="16.4167" stroke="#1A90FF"/>
<path fill-rule="evenodd" clip-rule="evenodd" d="M24 3V14.6667H23V3H24ZM3 24H14.6667V23H3V24ZM24 45V33.3333H23V45H24ZM32.1667 24H43.8333V23H32.1667V24Z" fill="#F7FAFF"/>
<circle cx="23.4167" cy="23.4167" r="2.41667" stroke="#1A90FF"/>
<circle cx="23.5" cy="23.5" r="12.5" fill="#F7FAFF"/>
</svg>
