<svg width="72" height="72" viewBox="0 0 72 72" fill="none" xmlns="http://www.w3.org/2000/svg">
<circle cx="36" cy="36" r="35.5" stroke="#1A90FF"/>
<path d="M23.6619 37.9515L23.6613 37.9521C23.4462 38.166 23.4462 38.5123 23.6613 38.7262L23.6619 38.7268L33.2374 48.2837L33.549 48.5805C35.0837 50.0421 37.3749 50.5 39.8382 50.5C44.7533 50.5 48.5 47.0469 48.5 42.1941V37.4534C48.5 36.582 48.026 35.8198 47.3153 35.4052L41.2161 32.0536L41.1899 32.0392L41.1655 32.0217C40.9318 31.8541 40.5669 31.5982 40.1896 31.3854C40.001 31.2791 39.8184 31.1887 39.6546 31.1261C39.4845 31.061 39.3668 31.0385 39.2986 31.0385C38.9863 31.0385 38.679 31.1619 38.3715 31.383C38.0622 31.6053 37.7799 31.9069 37.5275 32.216L36.6402 33.3028V31.8998V25.5578C36.6402 24.8875 36.4093 24.3868 36.0471 24.051C35.6805 23.7111 35.1357 23.5 34.4423 23.5C33.748 23.5 33.1797 23.7118 32.7917 24.0576C32.4099 24.3979 32.1674 24.8981 32.1674 25.5578V39.2724V40.6472L31.2842 39.5937L30.2967 38.4157C29.2899 37.422 27.7298 36.9615 26.3485 36.9615C25.4222 36.9615 24.6697 37.303 23.7611 37.8739L23.7545 37.878L23.7478 37.882C23.7259 37.8948 23.6969 37.9166 23.6619 37.9515Z" fill="#F7FAFF" stroke="#F7FAFF"/>
<path fill-rule="evenodd" clip-rule="evenodd" d="M45.3535 25.1465L42.3535 22.1465L41.6464 22.8536L43.7929 25H39V26H43.7929L41.6464 28.1465L42.3535 28.8536L45.3535 25.8536L45.7071 25.5L45.3535 25.1465ZM23.6464 25.1465L26.6464 22.1465L27.3535 22.8536L25.2071 25H30V26H25.2071L27.3535 28.1465L26.6464 28.8536L23.6464 25.8536L23.2929 25.5L23.6464 25.1465Z" fill="#1A90FF"/>
</svg>
