<svg width="48" height="48" viewBox="0 0 48 48" fill="none" xmlns="http://www.w3.org/2000/svg">
<path fill-rule="evenodd" clip-rule="evenodd" d="M20.3333 5.35352C12.7809 6.83011 6.83012 12.7809 5.35352 20.3333H6.37374C7.8222 13.3343 13.3344 7.82219 20.3333 6.37374V5.35352ZM41.6263 20.3333C40.2241 13.5581 35.014 8.17616 28.3333 6.52504V5.49639C35.5676 7.18394 41.2136 13.0045 42.6465 20.3333H41.6263ZM28.3333 41.475C34.7933 39.8784 39.8784 34.7933 41.475 28.3333H42.5036C40.8676 35.3469 35.3469 40.8676 28.3333 42.5036V41.475ZM6.52503 28.3333C8.17614 35.014 13.5581 40.2241 20.3333 41.6263V42.6465C13.0045 41.2136 7.18392 35.5676 5.49637 28.3333H6.52503Z" fill="#1A90FF"/>
<circle cx="24" cy="24" r="13" fill="#F7FAFF"/>
</svg>
