<svg width="72" height="72" viewBox="0 0 72 72" fill="none" xmlns="http://www.w3.org/2000/svg">
<circle cx="36" cy="36" r="35.5" stroke="#1A90FF"/>
<path d="M27.0394 28.6992L27.0403 28.6992C27.0906 28.6993 27.1277 28.7043 27.1535 28.7107L27.1608 28.7125L27.1681 28.7141C28.2088 28.9412 28.9769 29.2178 29.6254 29.8379C30.5935 30.7635 31.3565 32.11 31.3664 33.4346L31.233 34.8852L31.1106 36.2158L32.0764 35.2924L41.7002 26.0909L41.3588 25.7338L41.7002 26.0909C42.1606 25.6507 42.6838 25.4747 43.1973 25.5029C43.7178 25.5315 44.2663 25.773 44.7511 26.2366C45.2362 26.7003 45.4634 27.1998 45.4815 27.6588C45.4994 28.1109 45.3176 28.5924 44.8495 29.0399L40.3992 33.295L39.3554 34.2929L40.7928 34.1541C41.1874 34.1159 41.599 34.1028 41.9742 34.1615C42.3486 34.2201 42.6516 34.3446 42.869 34.5525C42.9146 34.5961 42.9795 34.687 43.0521 34.8424C43.122 34.992 43.186 35.1731 43.2434 35.3697C43.3582 35.7632 43.4343 36.1777 43.4807 36.4466L43.486 36.4773L43.495 36.5072L45.4228 42.8474C45.6255 43.5846 45.4303 44.3987 44.8243 44.978L41.4977 48.1587C38.0913 51.4156 33.0294 51.2174 29.5805 47.9199C27.8504 46.2657 26.5743 44.4291 26.5234 42.4373L26.513 42.0296L26.5 29.1938L26.5 29.1929C26.4993 28.9404 26.719 28.6984 27.0394 28.6992Z" fill="#F7FAFF" stroke="#F7FAFF"/>
<path fill-rule="evenodd" clip-rule="evenodd" d="M49 26C49 27.8029 47.8072 29.3273 46.1677 29.8269C46.0802 29.9291 45.9863 30.0283 45.8861 30.1241L44.9701 30.9999L45 31C47.7614 31 50 28.7614 50 26C50 23.2386 47.7614 21 45 21C42.3636 21 40.2039 23.0404 40.0136 25.6281L40.6636 25.0067C40.8583 24.8205 41.0649 24.6599 41.2807 24.5251C41.8678 23.0459 43.3118 22 45 22C47.2091 22 49 23.7909 49 26ZM33 29C33 29.8388 32.7935 30.6293 32.4285 31.3235C32.263 30.917 32.0581 30.53 31.8265 30.1688C31.9393 29.7991 32 29.4066 32 29C32 26.7909 30.2091 25 28 25C25.7909 25 24 26.7909 24 29C24 30.0158 24.3786 30.9432 25.0025 31.6487L25.0039 33.0033C23.7872 32.0912 23 30.6376 23 29C23 26.2386 25.2386 24 28 24C30.7614 24 33 26.2386 33 29Z" fill="#1A90FF"/>
<path d="M35.5 12V16.5M35.5 21V16.5M35.5 16.5H31M35.5 16.5H40" stroke="#F7FAFF"/>
<path d="M31 58.5H35.5H40" stroke="#F7FAFF"/>
</svg>
