<svg width="36" height="36" viewBox="0 0 36 36" fill="none" xmlns="http://www.w3.org/2000/svg">
<path fill-rule="evenodd" clip-rule="evenodd" d="M18 29C11.2136 29 5.51945 24.3139 3.98101 18.0001C5.51941 11.6862 11.2136 7 18 7C24.7864 7 30.4805 11.6861 32.019 17.9999C30.4806 24.3138 24.7864 29 18 29ZM18 6C25.3426 6 31.4872 11.1292 33.0462 17.9999C31.4872 24.8708 25.3426 30 18 30C10.6574 30 4.51283 24.8708 2.95374 18.0001C4.51279 11.1292 10.6574 6 18 6ZM6.7153 18C7.11276 16.2484 7.90757 14.6477 8.99997 13.2978V15.0225C8.43764 15.9325 8.00951 16.9342 7.74325 18C8.00952 19.0659 8.43764 20.0676 8.99997 20.9776V22.7023C7.90758 21.3523 7.11277 19.7516 6.7153 18ZM28.2567 18C27.9905 19.0658 27.5623 20.0676 27 20.9776V22.7023C28.0924 21.3523 28.8872 19.7516 29.2847 17.9999C28.8872 16.2483 28.0924 14.6476 27 13.2977V15.0223C27.5623 15.9324 27.9905 16.9341 28.2567 18Z" fill="#F7FAFF"/>
<circle cx="18" cy="18" r="2.5" stroke="#1A90FF"/>
</svg>
