<svg xmlns="http://www.w3.org/2000/svg" width="20" height="20" fill="none" viewBox="0 0 20 20"><path fill="#F7FAFF" fill-rule="evenodd" d="M15.664 16.9946L15.0342 16.2179C14.8175 16.3936 14.5914 16.5582 14.3568 16.7108L14.9023 17.549C15.1661 17.3773 15.4203 17.1922 15.664 16.9946ZM13.2263 18.4045L12.8678 17.471C12.6087 17.5705 12.3432 17.6569 12.072 17.7294L12.3302 18.6955C12.6356 18.6138 12.9346 18.5165 13.2263 18.4045ZM10.4711 18.9879L10.4196 17.9893C10.2808 17.9964 10.1408 18 10 18C9.85916 18 9.71925 17.9964 9.58037 17.9893L9.52886 18.9879C9.68489 18.996 9.84197 19 10 19C10.158 19 10.3151 18.996 10.4711 18.9879ZM7.66978 18.6955L7.92802 17.7294C7.65681 17.6569 7.39129 17.5705 7.13224 17.471L6.77366 18.4045C7.06536 18.5165 7.36437 18.6138 7.66978 18.6955ZM5.09774 17.549L5.64316 16.7108C5.40863 16.5582 5.18254 16.3936 4.96578 16.2179L4.336 16.9946C4.5797 17.1922 4.83394 17.3773 5.09774 17.549ZM3.0054 15.664L3.78218 15.0343C3.60643 14.8175 3.44182 14.5914 3.28921 14.3569L2.45104 14.9023C2.6227 15.1661 2.80781 15.4203 3.0054 15.664ZM1.59557 13.2264L2.52907 12.8678C2.42956 12.6088 2.34316 12.3432 2.27067 12.072L1.30458 12.3303C1.38622 12.6357 1.48352 12.9347 1.59557 13.2264Z" clip-rule="evenodd"/><path fill="#F7FAFF" d="M18.0298 14.0648L19 14.5L16 16V13L17 13.5C17.4268 12.6305 17.8012 11.6779 17.8882 10.7085C18 9.46416 17.8158 8.21097 17.3507 7.05139C16.8855 5.89181 16.1526 4.85872 15.2119 4.03653C14.2711 3.21435 13.1492 2.6264 11.9378 2.32071C10.7263 2.01502 9.45977 2.00028 8.24155 2.27768C7.02333 2.55508 5.88803 3.11675 4.92839 3.91682C3.96875 4.71688 3.21201 5.73262 2.71999 6.88106C2.22797 8.0295 2.01463 9.27806 2.0974 10.5247L1.01977 10.5963C0.997584 10.262 0.994121 9.92771 1.00913 9.59477C1.05773 8.51649 1.30005 7.45291 1.72726 6.45575C2.28637 5.15071 3.14631 3.99645 4.2368 3.08729C5.3273 2.17813 6.61742 1.53986 8.00176 1.22464C9.3861 0.909407 10.8254 0.926163 12.202 1.27353C13.5786 1.6209 14.8535 2.28903 15.9226 3.22333C16.9916 4.15763 17.8244 5.3316 18.353 6.64931C18.8816 7.96702 19.0909 9.39109 18.9639 10.8052C18.8669 11.8856 18.5755 12.9368 18.1067 13.9091C18.0816 13.9612 18.0559 14.0131 18.0298 14.0648Z"/><path fill="#F7FAFF" d="M14 10L7 6L7 14L14 10Z"/></svg>