<svg width="12" height="12" viewBox="0 0 12 12" fill="none" xmlns="http://www.w3.org/2000/svg">
<g clip-path="url(#clip0)">
<path fill-rule="evenodd" clip-rule="evenodd" d="M1.002 6H1H0.00199986H0C0 5.66376 0.0282575 5.3293 0.0839194 5C0.191601 4.36296 0.401844 3.74528 0.708473 3.17162C1.1736 2.30142 1.84616 1.55937 2.66658 1.01118C3.48699 0.462999 4.42994 0.125607 5.4119 0.0288931C6.39385 -0.0678209 7.3845 0.0791284 8.2961 0.456724C9.2077 0.83432 10.0121 1.43091 10.6381 2.19364C11.264 2.95638 11.6922 3.86171 11.8847 4.82946C12.0772 5.79721 12.0281 6.79749 11.7416 7.74171C11.5528 8.36417 11.2647 8.9496 10.8904 9.4762C10.6969 9.7484 10.4804 10.0049 10.2426 10.2426L11 11H9V9L9.53412 9.53412C10.1153 8.95293 10.5442 8.23738 10.7828 7.45084C11.0214 6.66431 11.0623 5.83107 10.902 5.02494C10.7416 4.21881 10.3849 3.46466 9.86351 2.8293C9.34208 2.19395 8.67201 1.69699 7.91265 1.38245C7.15329 1.06791 6.32808 0.945505 5.51011 1.02607C4.69214 1.10663 3.90667 1.38768 3.22326 1.84432C2.53985 2.30095 1.97961 2.91909 1.59216 3.64396C1.2047 4.36883 1.002 5.17807 1.002 6ZM0.232389 7.65384C0.183786 7.48434 0.142985 7.31445 0.109772 7.14456L1.09119 6.9527C1.1189 7.09442 1.15298 7.23636 1.19365 7.3782C1.23432 7.52004 1.28064 7.65847 1.33224 7.79334L0.39828 8.15071C0.336417 7.98903 0.280992 7.82334 0.232389 7.65384ZM2.22491 9.28077L1.47064 9.93732C1.70104 10.202 1.95327 10.4447 2.22367 10.6633L2.85232 9.88556C2.62686 9.70331 2.41673 9.50113 2.22491 9.28077ZM4.37282 10.7284L4.04644 11.6736C4.37509 11.7871 4.71454 11.8724 5.06111 11.9276L5.21819 10.94C4.92967 10.8941 4.64685 10.823 4.37282 10.7284ZM6.95264 10.9088L7.1445 11.8902C7.3144 11.857 7.48428 11.8162 7.65378 11.7676C7.82328 11.719 7.98898 11.6636 8.15065 11.6017L7.79329 10.6677C7.65841 10.7193 7.51999 10.7657 7.37815 10.8063C7.2363 10.847 7.09437 10.8811 6.95264 10.9088Z" fill="#F7FAFF"/>
<circle cx="6" cy="6" r="3" fill="#FF6952"/>
</g>
<defs>
<clipPath id="clip0">
<rect width="12" height="12" fill="white"/>
</clipPath>
</defs>
</svg>
