<svg width="12" height="12" viewBox="0 0 12 12" fill="none" xmlns="http://www.w3.org/2000/svg">
<path d="M5.34997 1.04445C5.4032 1.03747 5.45659 1.03134 5.51011 1.02607C6.32808 0.945505 7.15329 1.06791 7.91265 1.38245C8.67201 1.69699 9.34208 2.19395 9.86351 2.8293C10.3849 3.46466 10.7416 4.21881 10.902 5.02494C11.0623 5.83107 11.0214 6.66431 10.7828 7.45084C10.5442 8.23738 10.1153 8.95293 9.53412 9.53412L8.75 8.75L8.5 11L11 11L10.2426 10.2426C10.4804 10.0049 10.6969 9.7484 10.8904 9.4762C11.2647 8.9496 11.5528 8.36417 11.7416 7.74171C12.0281 6.79749 12.0772 5.79721 11.8847 4.82946C11.6922 3.86171 11.264 2.95638 10.6381 2.19364C10.0121 1.43091 9.2077 0.83432 8.2961 0.456724C7.39851 0.0849289 6.42427 -0.0632517 5.45716 0.0246085L5.34997 1.04445Z" fill="#F7FAFF"/>
<path d="M6.65002 10.9555C6.5968 10.9625 6.54341 10.9687 6.48988 10.9739C5.67191 11.0545 4.8467 10.9321 4.08734 10.6175C3.32798 10.303 2.65791 9.80605 2.13648 9.1707C1.61506 8.53534 1.25838 7.78119 1.09803 6.97506C0.937676 6.16893 0.978611 5.33569 1.2172 4.54916C1.4558 3.76262 1.88468 3.04707 2.46587 2.46588L3.24999 3.25L3.49999 1L0.999991 0.999998L1.75735 1.75736C1.5196 1.99511 1.30307 2.2516 1.10958 2.5238C0.73527 3.0504 0.44717 3.63583 0.258349 4.25829C-0.0280766 5.20251 -0.0772176 6.20279 0.11528 7.17054C0.307776 8.13829 0.735968 9.04362 1.36193 9.80636C1.98789 10.5691 2.79229 11.1657 3.70389 11.5433C4.60148 11.9151 5.57572 12.0633 6.54283 11.9754L6.65002 10.9555Z" fill="#F7FAFF"/>
<circle cx="6" cy="6" r="1" fill="#1A90FF"/>
</svg>
