<svg width="16" height="16" viewBox="0 0 16 16" fill="none" xmlns="http://www.w3.org/2000/svg">
<path fill-rule="evenodd" clip-rule="evenodd" d="M7.41667 0H6.69591L6.46798 0.683772L5.79983 2.68825L3.90996 1.74332L3.2653 1.42098L2.75564 1.93064L1.93069 2.75559L1.42103 3.26525L1.74337 3.90991L2.68831 5.7998L0.683772 6.46798L0 6.69591V7.41667V8.58333V9.30409L0.683772 9.53202L2.68825 10.2002L1.74332 12.09L1.42098 12.7347L1.93064 13.2444L2.75559 14.0693L3.26525 14.579L3.90991 14.2566L5.7998 13.3117L6.46798 15.3162L6.69591 16H7.41667H8.58333H9.30409L9.53202 15.3162L10.2002 13.3117L12.0901 14.2566L12.7347 14.579L13.2444 14.0693L14.0694 13.2443L14.579 12.7347L14.2567 12.09L13.3117 10.2002L15.3162 9.53202L16 9.30409V8.58333V7.41667V6.69591L15.3162 6.46798L13.3117 5.7998L14.2566 3.90993L14.579 3.26526L14.0693 2.7556L13.2443 1.93065L12.7347 1.42099L12.09 1.74333L10.2002 2.68825L9.53202 0.683772L9.30409 0H8.58333H7.41667ZM3.46275 2.63774L5.87525 3.84399C6.09523 3.7313 6.32533 3.63556 6.56383 3.5585L7.41667 1H8.58333L9.43616 3.5585C9.67467 3.63556 9.90477 3.7313 10.1248 3.84399L12.5372 2.63775L13.3622 3.46271L12.156 5.87517C12.2687 6.09517 12.3644 6.3253 12.4415 6.56383L15 7.41667V8.58333L12.4415 9.43617C12.3644 9.67467 12.2687 9.90477 12.156 10.1248L13.3622 12.5372L12.5373 13.3622L10.1248 12.156C9.90483 12.2687 9.6747 12.3644 9.43617 12.4415L8.58333 15H7.41667L6.56383 12.4415C6.32531 12.3644 6.09518 12.2687 5.87517 12.156L3.4627 13.3622L2.63774 12.5372L3.84399 10.1248C3.7313 9.90477 3.63556 9.67467 3.5585 9.43617L1 8.58333V7.41667L3.5585 6.56383C3.63557 6.32531 3.73132 6.09518 3.84403 5.87517L2.63779 3.4627L3.46275 2.63774ZM9 8C9 8.55228 8.55228 9 8 9C7.44772 9 7 8.55228 7 8C7 7.44772 7.44772 7 8 7C8.55228 7 9 7.44772 9 8ZM10 8C10 9.10457 9.10457 10 8 10C6.89543 10 6 9.10457 6 8C6 6.89543 6.89543 6 8 6C9.10457 6 10 6.89543 10 8Z" fill="#F7FAFF"/>
</svg>
