<svg width="36" height="36" viewBox="0 0 36 36" fill="none" xmlns="http://www.w3.org/2000/svg">
<circle cx="18" cy="18" r="13.5" stroke="#F7FAFF"/>
<circle cx="27" cy="27" r="5.5" fill="#EB553E" stroke="#EB553E"/>
<path fill-rule="evenodd" clip-rule="evenodd" d="M28.7383 29.4454C28.2479 29.7946 27.6479 30 27 30C25.3431 30 24 28.6569 24 27C24 26.3521 24.2054 25.7521 24.5546 25.2617L28.7383 29.4454ZM29.4454 28.7383L25.2617 24.5546C25.7521 24.2054 26.3521 24 27 24C28.6569 24 30 25.3431 30 27C30 27.6479 29.7946 28.2479 29.4454 28.7383ZM31 27C31 29.2091 29.2091 31 27 31C24.7909 31 23 29.2091 23 27C23 24.7909 24.7909 23 27 23C29.2091 23 31 24.7909 31 27Z" fill="#F7FAFF"/>
</svg>
