<svg width="36" height="36" viewBox="0 0 36 36" fill="none" xmlns="http://www.w3.org/2000/svg">
<path fill-rule="evenodd" clip-rule="evenodd" d="M17 31.9915V25H18V31.9915C25.6106 31.7336 31.7336 25.6106 31.9915 18H25V17H31.9915C31.728 9.22339 25.3408 3 17.5 3C9.65922 3 3.27198 9.22339 3.00846 17H10V18H3.00846C3.26636 25.6106 9.38936 31.7336 17 31.9915ZM17 32.9921C8.83701 32.7334 2.2666 26.163 2.00791 18H2V17.5V17H2.00791C2.27186 8.67099 9.10688 2 17.5 2C25.8931 2 32.7281 8.67099 32.9921 17H33V17.5V18H32.9921C32.7334 26.163 26.163 32.7334 18 32.9921V33H17.5H17V32.9921Z" fill="#F7FAFF"/>
<circle cx="17.5" cy="17.5" r="7.51724" stroke="#1A90FF"/>
</svg>
