<svg width="26" height="26" viewBox="0 0 26 26" fill="none" xmlns="http://www.w3.org/2000/svg">
<g filter="url(#filter0_d)">
<path fill-rule="evenodd" clip-rule="evenodd" d="M12.6667 8H11.9459L11.718 8.68377L11.518 9.28382C11.4852 9.29691 11.4526 9.31042 11.4202 9.32435L10.8545 9.04147L10.2098 8.71914L9.70014 9.22879L9.22874 9.70019L8.71908 10.2098L9.04142 10.8545L9.32431 11.4203C9.3104 11.4526 9.2969 11.4852 9.28382 11.518L8.68377 11.718L8 11.9459V12.6667V13.3333V14.0541L8.68377 14.282L9.28383 14.482C9.2969 14.5148 9.3104 14.5474 9.32431 14.5797L9.04139 15.1455L8.71906 15.7902L9.22871 16.2998L9.70011 16.7712L10.2098 17.2809L10.8544 16.9586L11.4202 16.6757C11.4526 16.6896 11.4852 16.7031 11.518 16.7162L11.718 17.3162L11.9459 18H12.6667H13.3333H14.0541L14.282 17.3162L14.482 16.7162C14.5148 16.7031 14.5474 16.6896 14.5797 16.6757L15.1455 16.9586L15.7902 17.2809L16.2998 16.7713L16.7712 16.2999L17.2809 15.7902L16.9585 15.1455L16.6757 14.5798C16.6896 14.5474 16.7031 14.5148 16.7162 14.482L17.3162 14.282L18 14.0541V13.3333V12.6667V11.9459L17.3162 11.718L16.7162 11.518C16.7031 11.4852 16.6896 11.4526 16.6756 11.4202L16.9585 10.8545L17.2808 10.2098L16.7712 9.70017L16.2998 9.22877L15.7901 8.71912L15.1455 9.04145L14.5797 9.32432C14.5474 9.31041 14.5148 9.2969 14.482 9.28382L14.282 8.68377L14.0541 8H13.3333H12.6667ZM12.3065 10.0806C11.9909 10.1553 11.6946 10.2798 11.4263 10.4454L10.9552 10.2098L10.643 10.0537L10.4072 9.9359L9.93584 10.4073L10.0537 10.643L10.2098 10.9552L10.4454 11.4264C10.2798 11.6946 10.1552 11.9909 10.0806 12.3065L9.58114 12.473L9.25 12.5833L9 12.6667V13.3333L9.25 13.4167L9.58114 13.5271L10.0806 13.6935C10.1552 14.0091 10.2798 14.3054 10.4454 14.5736L10.2098 15.0448L10.0537 15.357L9.93582 15.5927L10.4072 16.0641L10.6429 15.9463L10.9551 15.7902L11.4263 15.5546C11.6946 15.7202 11.9909 15.8447 12.3065 15.9194L12.473 16.4189L12.5833 16.75L12.6667 17H13.3333L13.4167 16.75L13.527 16.4189L13.6935 15.9194C14.0091 15.8448 14.3054 15.7202 14.5736 15.5546L15.0448 15.7902L15.357 15.9463L15.5927 16.0642L16.0641 15.5928L15.9463 15.357L15.7902 15.0448L15.5546 14.5737C15.7202 14.3054 15.8447 14.0091 15.9194 13.6935L16.4189 13.5271L16.75 13.4167L17 13.3333V12.6667L16.75 12.5833L16.4189 12.473L15.9194 12.3065C15.8447 11.9909 15.7202 11.6945 15.5546 11.4263L15.7901 10.9552L15.9462 10.643L16.0641 10.4073L15.5927 9.93588L15.357 10.0537L15.0448 10.2098L14.5737 10.4454C14.3054 10.2798 14.0091 10.1552 13.6935 10.0806L13.527 9.58114L13.4167 9.25L13.3333 9H12.6667L12.5833 9.25L12.473 9.58114L12.3065 10.0806ZM13.609 13.0323C13.609 13.3768 13.3331 13.6452 13.0064 13.6452C12.6797 13.6452 12.4038 13.3768 12.4038 13.0323C12.4038 12.6877 12.6797 12.4194 13.0064 12.4194C13.3331 12.4194 13.609 12.6877 13.609 13.0323ZM14.609 13.0323C14.609 13.923 13.8915 14.6452 13.0064 14.6452C12.1213 14.6452 11.4038 13.923 11.4038 13.0323C11.4038 12.1415 12.1213 11.4194 13.0064 11.4194C13.8915 11.4194 14.609 12.1415 14.609 13.0323Z" fill="white" fill-opacity="0.8"/>
</g>
<defs>
<filter id="filter0_d" x="0" y="0" width="26" height="26" filterUnits="userSpaceOnUse" color-interpolation-filters="sRGB">
<feFlood flood-opacity="0" result="BackgroundImageFix"/>
<feColorMatrix in="SourceAlpha" type="matrix" values="0 0 0 0 0 0 0 0 0 0 0 0 0 0 0 0 0 0 127 0"/>
<feOffset/>
<feGaussianBlur stdDeviation="4"/>
<feColorMatrix type="matrix" values="0 0 0 0 0 0 0 0 0 0 0 0 0 0 0 0 0 0 0.8 0"/>
<feBlend mode="normal" in2="BackgroundImageFix" result="effect1_dropShadow"/>
<feBlend mode="normal" in="SourceGraphic" in2="effect1_dropShadow" result="shape"/>
</filter>
</defs>
</svg>
