<svg width="12" height="12" viewBox="0 0 12 12" fill="none" xmlns="http://www.w3.org/2000/svg">
<path fill-rule="evenodd" clip-rule="evenodd" d="M5.58333 0H4.86257L4.63465 0.683772L4.26155 1.80306L3.20628 1.27543L2.56162 0.953094L2.05196 1.46275L1.46271 2.052L0.953054 2.56166L1.27539 3.20632L1.80301 4.26157L0.683772 4.63465L0 4.86257V5.58333V6.41667V7.13743L0.683772 7.36535L1.80298 7.73842L1.27535 8.79368L0.953018 9.43834L1.46267 9.948L2.05193 10.5373L2.56158 11.0469L3.20625 10.7246L4.26155 10.1969L4.63465 11.3162L4.86257 12H5.58333H6.41667H7.13743L7.36535 11.3162L7.73843 10.197L8.79367 10.7246L9.43834 11.0469L9.94799 10.5373L10.5372 9.94803L11.0469 9.43837L10.7246 8.79371L10.1969 7.73845L11.3162 7.36535L12 7.13743V6.41667V5.58333V4.86257L11.3162 4.63465L10.1969 4.26154L10.7245 3.20629L11.0469 2.56163L10.5372 2.05197L9.94795 1.46272L9.4383 0.953064L8.79363 1.2754L7.73843 1.803L7.36535 0.683772L7.13743 0H6.41667H5.58333ZM3.07127 2.32595L4.29955 2.94009C4.53107 2.81116 4.77876 2.70773 5.03879 2.63363L5.47295 1.33114L5.47917 1.3125L5.58333 1H6.41667L6.52083 1.3125L6.52705 1.33114L6.96121 2.63363C7.22122 2.70773 7.46887 2.81114 7.70037 2.94006L8.92864 2.32592L8.94622 2.31714L9.24085 2.16982L9.8301 2.75908L9.68279 3.05371L9.674 3.07128L9.05987 4.29953C9.18882 4.53106 9.29224 4.77874 9.36635 5.03878L10.6689 5.47295L10.6875 5.47917L11 5.58333V6.41667L10.6875 6.52083L10.6689 6.52705L9.36634 6.96122C9.29224 7.22124 9.18882 7.46891 9.05989 7.70042L9.67404 8.92872L9.68282 8.94629L9.83014 9.24092L9.24088 9.83018L8.94625 9.68286L8.92868 9.67408L7.70036 9.05992C7.46887 9.18884 7.22122 9.29224 6.96122 9.36634L6.52705 10.6689L6.52083 10.6875L6.41667 11H5.58333L5.47917 10.6875L5.47295 10.6689L5.03878 9.36635C4.77875 9.29224 4.53108 9.18882 4.29955 9.05989L3.07123 9.67405L3.05366 9.68283L2.75903 9.83015L2.16978 9.24089L2.31709 8.94626L2.32588 8.92869L2.94005 7.70035C2.81114 7.46885 2.70773 7.22121 2.63363 6.96121L1.33114 6.52705L1.3125 6.52083L1 6.41667V5.58333L1.3125 5.47917L1.33114 5.47295L2.63363 5.03879C2.70773 4.77878 2.81114 4.53111 2.94006 4.29961L2.32591 3.07131L2.31713 3.05374L2.16981 2.75911L2.75907 2.16985L3.0537 2.31717L3.07127 2.32595ZM7 6C7 6.55228 6.55228 7 6 7C5.44772 7 5 6.55228 5 6C5 5.44772 5.44772 5 6 5C6.55228 5 7 5.44772 7 6ZM8 6C8 7.10457 7.10457 8 6 8C4.89543 8 4 7.10457 4 6C4 4.89543 4.89543 4 6 4C7.10457 4 8 4.89543 8 6Z" fill="#F7FAFF"/>
</svg>
