<svg width="32" height="32" viewBox="0 0 32 32" fill="none" xmlns="http://www.w3.org/2000/svg">
<path fill-rule="evenodd" clip-rule="evenodd" d="M15.314 9.03298C15.2089 9.04332 15.1042 9.05603 15 9.07108V8.06203C15.0718 8.05298 15.1438 8.0449 15.2159 8.03779C16.5252 7.90884 17.8461 8.10477 19.0615 8.60823C20.277 9.11169 21.3495 9.90714 22.1842 10.9241C23.0188 11.9411 23.5897 13.1482 23.8464 14.4385C24.103 15.7289 24.0375 17.0626 23.6556 18.3215C23.371 19.2597 22.9173 20.1347 22.3197 20.9046C22.2109 21.0447 22.0974 21.1813 21.9793 21.3142L23.0001 22L20.0001 23V20L21.1777 20.7101C21.8764 19.9422 22.3965 19.0274 22.6987 18.0313C23.0328 16.9297 23.0901 15.7627 22.8656 14.6336C22.641 13.5046 22.1414 12.4484 21.4111 11.5585C20.6809 10.6687 19.7424 9.97264 18.6789 9.53211C17.6153 9.09158 16.4596 8.92014 15.314 9.03298ZM16.6861 22.967C16.7912 22.9566 16.8959 22.9439 17.0001 22.9289V23.9379C16.9283 23.947 16.8563 23.9551 16.7841 23.9622C15.4749 24.0911 14.154 23.8952 12.9385 23.3917C11.7231 22.8883 10.6505 22.0928 9.81592 21.0758C8.9813 20.0589 8.41038 18.8518 8.15372 17.5614C7.89706 16.2711 7.96258 14.9374 8.34448 13.6784C8.62905 12.7403 9.08275 11.8653 9.68041 11.0953C9.78914 10.9552 9.90263 10.8186 10.0207 10.6858L9 9.99997L12 8.99997V12L10.8224 11.2898C10.1237 12.0578 9.60359 12.9726 9.30142 13.9687C8.96726 15.0703 8.90993 16.2373 9.1345 17.3663C9.35908 18.4954 9.85864 19.5516 10.5889 20.4415C11.3192 21.3313 12.2577 22.0273 13.3212 22.4679C14.3847 22.9084 15.5405 23.0798 16.6861 22.967Z" fill="#B6B8CD"/>
<circle cx="16" cy="16" r="2" fill="#B6B8CD"/>
</svg>
