<svg width="32" height="32" viewBox="0 0 32 32" fill="none" xmlns="http://www.w3.org/2000/svg">
<rect width="32" height="32" fill="#373A58"/>
<path fill-rule="evenodd" clip-rule="evenodd" d="M15.4167 8H14.6959L14.468 8.68377L13.7998 10.6883L11.9099 9.74335L11.2653 9.42102L10.7556 9.93067L9.93065 10.7556L9.421 11.2653L9.74333 11.9099L10.6883 13.7998L8.68377 14.468L8 14.6959V15.4167V16.5833V17.3041L8.68377 17.532L10.6882 18.2002L9.74328 20.0901L9.42094 20.7347L9.9306 21.2444L10.7556 22.0693L11.2652 22.579L11.9099 22.2567L13.7998 21.3117L14.468 23.3162L14.6959 24H15.4167H16.5833H17.3041L17.532 23.3162L18.2002 21.3117L20.09 22.2567L20.7347 22.579L21.2444 22.0693L22.0693 21.2444L22.579 20.7347L22.2566 20.0901L21.3117 18.2002L23.3162 17.532L24 17.3041V16.5833V15.4167V14.6959L23.3162 14.468L21.3117 13.7998L22.2566 11.91L22.5789 11.2653L22.0693 10.7556L21.2443 9.93068L20.7347 9.42103L20.09 9.74336L18.2002 10.6883L17.532 8.68377L17.3041 8H16.5833H15.4167ZM11.4627 10.6378L13.8752 11.844C14.0952 11.7313 14.3253 11.6356 14.5638 11.5585L15.4167 9H16.5833L17.4362 11.5585C17.6747 11.6356 17.9048 11.7313 18.1248 11.844L20.5372 10.6378L21.3622 11.4627L20.156 13.8751C20.2687 14.0952 20.3644 14.3253 20.4415 14.5638L23 15.4167V16.5833L20.4415 17.4362C20.3644 17.6747 20.2687 17.9048 20.156 18.1248L21.3622 20.5373L20.5373 21.3622L18.1248 20.156C17.9048 20.2687 17.6747 20.3644 17.4362 20.4415L16.5833 23H15.4167L14.5638 20.4415C14.3253 20.3644 14.0952 20.2687 13.8752 20.156L11.4627 21.3622L10.6377 20.5373L11.844 18.1247C11.7313 17.9048 11.6356 17.6747 11.5585 17.4362L9 16.5833V15.4167L11.5585 14.5638C11.6356 14.3253 11.7313 14.0952 11.844 13.8752L10.6378 11.4627L11.4627 10.6378ZM17 16C17 16.5523 16.5523 17 16 17C15.4477 17 15 16.5523 15 16C15 15.4477 15.4477 15 16 15C16.5523 15 17 15.4477 17 16ZM18 16C18 17.1046 17.1046 18 16 18C14.8954 18 14 17.1046 14 16C14 14.8954 14.8954 14 16 14C17.1046 14 18 14.8954 18 16Z" fill="#F7FAFF"/>
</svg>
