<svg width="32" height="32" viewBox="0 0 32 32" fill="none" xmlns="http://www.w3.org/2000/svg">
<rect width="32" height="32" fill="#1B1E38"/>
<path fill-rule="evenodd" clip-rule="evenodd" d="M9.00006 15.9986C9.00017 14.8477 9.28406 13.7145 9.82661 12.6995C10.3693 11.6843 11.1539 10.8185 12.1111 10.179C13.0682 9.53943 14.1683 9.14581 15.3139 9.03298C16.4596 8.92014 17.6153 9.09158 18.6788 9.53211C19.7424 9.97264 20.6808 10.6687 21.4111 11.5585C22.1414 12.4484 22.641 13.5046 22.8656 14.6336C23.0901 15.7627 23.0328 16.9297 22.6986 18.0313C22.3965 19.0274 21.8764 19.9422 21.1777 20.7101L20.0001 20V23L23.0001 22L21.9793 21.3142C22.0974 21.1813 22.2109 21.0447 22.3197 20.9046C22.9173 20.1347 23.371 19.2597 23.6556 18.3215C24.0375 17.0626 24.103 15.7289 23.8463 14.4385C23.5897 13.1482 23.0188 11.9411 22.1841 10.9241C21.3495 9.90714 20.277 9.1117 19.0615 8.60823C17.8461 8.10477 16.5252 7.90884 15.2159 8.03779C13.9067 8.16674 12.6494 8.6166 11.5555 9.34751C10.4616 10.0784 9.56486 11.0678 8.94469 12.2281C8.48257 13.0927 8.18464 14.0322 8.06281 14.9993C8.02113 15.33 8.00006 15.664 8.00006 15.9993L9.00006 15.9986ZM19 16L14 13V19L19 16ZM9.27907 17.9575L8.31927 18.2382C8.36798 18.4047 8.42237 18.5708 8.48255 18.7361C8.54273 18.9015 8.6078 19.0636 8.67752 19.2225L9.5932 18.8206C9.53212 18.6814 9.47506 18.5392 9.42224 18.3941C9.36942 18.249 9.32173 18.1034 9.27907 17.9575ZM10.5394 20.383L9.75948 21.0089C9.97929 21.2828 10.2157 21.5402 10.4667 21.7801L11.1577 21.0572C10.9382 20.8474 10.7315 20.6224 10.5394 20.383ZM12.6327 22.1369L12.1521 23.0138C12.4583 23.1817 12.7752 23.3294 13.1006 23.4561L13.4634 22.5243C13.1784 22.4133 12.9009 22.2839 12.6327 22.1369ZM15.2386 22.9602L15.129 23.9542C15.4741 23.9922 15.8233 24.0079 16.1744 24.0002L16.1525 23.0005C15.8456 23.0072 15.5404 22.9935 15.2386 22.9602ZM17.9576 22.721L18.2383 23.6808C18.4049 23.6321 18.5709 23.5777 18.7362 23.5175C18.9016 23.4573 19.0638 23.3922 19.2226 23.3225L18.8207 22.4068C18.6815 22.4679 18.5393 22.525 18.3942 22.5778C18.2491 22.6306 18.1035 22.6783 17.9576 22.721Z" fill="#F7FAFF"/>
</svg>
