<svg width="32" height="32" viewBox="0 0 32 32" fill="none" xmlns="http://www.w3.org/2000/svg">
<rect width="32" height="32" fill="#373A58"/>
<path fill-rule="evenodd" clip-rule="evenodd" d="M16 12V9H19V10H17V12H24V23H8V12H16ZM23 13H9V22H23V13ZM13 15H11V16H13V15ZM15 15H14V16H15V15ZM16 15H17V16H16V15ZM19 15H18V16H19V15ZM20 15H21V17V18H19V17H20V15ZM12 17H11V18H12V17ZM14 17H13V18H14V17ZM15 17H16V18H15V17ZM18 17H17V18H18V17ZM18 19H13V20H18V19ZM12 19H11V20H12V19ZM19 20V19H21V20H19Z" fill="#F7FAFF"/>
</svg>
