<svg width="32" height="32" viewBox="0 0 32 32" fill="none" xmlns="http://www.w3.org/2000/svg">
<path fill-rule="evenodd" clip-rule="evenodd" d="M11 9V8H8V11H9V9H10.5H11ZM11 23V24H8V21H9V23H9.5H11ZM21 8V9H23V11H24V8H21ZM21 23V24H24V21H23V23H21ZM14 12H12H11V13V19V20H12H20H21V19V13V12H20H18L17.25 11H14.75L14 12ZM20 13H18H17.5L17.2 12.6L16.75 12H15.25L14.8 12.6L14.5 13H14H12V19H20V13ZM15 16C15 16.5477 15.4523 17 16 17C16.5477 17 17 16.5477 17 16C17 15.4523 16.5477 15 16 15C15.4523 15 15 15.4523 15 16ZM14 16C14 17.1 14.9 18 16 18C17.1 18 18 17.1 18 16C18 14.9 17.1 14 16 14C14.9 14 14 14.9 14 16Z" fill="#B6B8CD"/>
</svg>
