<svg width="36" height="36" viewBox="0 0 36 36" fill="none" xmlns="http://www.w3.org/2000/svg">
<path fill-rule="evenodd" clip-rule="evenodd" d="M15 4.32214C9.6761 5.48448 5.48451 9.67607 4.32217 15H5.34786C6.4747 10.2296 10.2296 6.47467 15 5.34783V4.32214ZM30.6521 15C29.5253 10.2296 25.7704 6.47467 21 5.34783V4.32214C26.3239 5.48448 30.5155 9.67607 31.6778 15H30.6521ZM21 30.6521C25.7704 29.5253 29.5253 25.7703 30.6521 21H31.6778C30.5155 26.3239 26.3239 30.5154 21 31.6778V30.6521ZM5.34786 21C6.4747 25.7703 10.2296 29.5253 15 30.6521V31.6778C9.6761 30.5154 5.48451 26.3239 4.32217 21H5.34786Z" fill="#1A90FF"/>
<circle cx="18" cy="18" r="9.5" stroke="#F7FAFF"/>
</svg>
