<svg width="20" height="20" viewBox="0 0 20 20" fill="none" xmlns="http://www.w3.org/2000/svg">
<path fill-rule="evenodd" clip-rule="evenodd" d="M7.96803 13.4462C7.38559 13.102 6.89798 12.6144 6.55382 12.032L3.29289 15.2929L4.70711 16.7071L7.96803 13.4462ZM9 13.874V18H11V13.874C10.6804 13.9562 10.3453 14 10 14C9.6547 14 9.31962 13.9562 9 13.874ZM12.032 13.4462L15.2929 16.7071L16.7071 15.2929L13.4462 12.032C13.102 12.6144 12.6144 13.102 12.032 13.4462ZM13.874 11H18V9H13.874C13.9562 9.31962 14 9.6547 14 10C14 10.3453 13.9562 10.6804 13.874 11ZM13.4462 7.96803L16.7071 4.70711L15.2929 3.29289L12.032 6.55382C12.6144 6.89798 13.102 7.38559 13.4462 7.96803ZM11 6.12602V2H9V6.12602C9.31962 6.04375 9.6547 6 10 6C10.3453 6 10.6804 6.04375 11 6.12602ZM7.96803 6.55382L4.70711 3.29289L3.29289 4.70711L6.55382 7.96803C6.89798 7.38559 7.38559 6.89798 7.96803 6.55382ZM6.12602 9H2V11H6.12602C6.04375 10.6804 6 10.3453 6 10C6 9.6547 6.04375 9.31962 6.12602 9Z" fill="#B6B8CD"/>
</svg>
