<svg width="36" height="36" viewBox="0 0 36 36" fill="none" xmlns="http://www.w3.org/2000/svg">
<path d="M5.66192 19.9515L5.6613 19.9521C5.44624 20.166 5.44624 20.5123 5.6613 20.7262L5.66195 20.7268L15.2374 30.2837L15.549 30.5805C17.0837 32.0421 19.3749 32.5 21.8382 32.5C26.7533 32.5 30.5 29.0469 30.5 24.1941V19.4534C30.5 18.582 30.026 17.8198 29.3153 17.4052L23.2161 14.0536L23.1899 14.0392L23.1655 14.0217C22.9318 13.8541 22.5669 13.5982 22.1896 13.3854C22.001 13.2791 21.8184 13.1887 21.6546 13.1261C21.4845 13.061 21.3668 13.0385 21.2986 13.0385C20.9863 13.0385 20.679 13.1619 20.3715 13.383C20.0622 13.6053 19.7799 13.9069 19.5275 14.216L18.6402 15.3028V13.8998V7.55777C18.6402 6.88745 18.4093 6.3868 18.0471 6.05096C17.6805 5.71106 17.1357 5.5 16.4423 5.5C15.748 5.5 15.1797 5.71185 14.7917 6.0576C14.4099 6.39786 14.1674 6.89815 14.1674 7.55777V21.2724V22.6472L13.2842 21.5937L12.2967 20.4157C11.2899 19.422 9.72981 18.9615 8.34849 18.9615C7.42222 18.9615 6.66972 19.303 5.76107 19.8739L5.75448 19.878L5.74777 19.882C5.72591 19.8948 5.69692 19.9166 5.66192 19.9515Z" stroke="#F7FAFF"/>
<path fill-rule="evenodd" clip-rule="evenodd" d="M27.3535 7.14648L24.3535 4.14648L23.6464 4.85359L25.7929 7.00004H21V8.00004H25.7929L23.6464 10.1465L24.3535 10.8536L27.3535 7.85359L27.7071 7.50004L27.3535 7.14648ZM5.64643 7.14648L8.64643 4.14648L9.35354 4.85359L7.20709 7.00004H12V8.00004H7.20709L9.35354 10.1465L8.64643 10.8536L5.64643 7.85359L5.29288 7.50004L5.64643 7.14648Z" fill="#1A90FF"/>
</svg>
