<svg width="20" height="20" viewBox="0 0 20 20" fill="none" xmlns="http://www.w3.org/2000/svg">
<path d="M8.19265 2.28898C8.20894 2.28516 8.22524 2.28139 8.24156 2.27768C9.45977 2.00028 10.7263 2.01502 11.9378 2.32071C13.1492 2.6264 14.2711 3.21435 15.2119 4.03653C16.1526 4.85872 16.8855 5.89181 17.3507 7.05139C17.8158 8.21097 18 9.46416 17.8883 10.7085C17.8059 11.6257 17.4662 12.528 17.0684 13.359L15.1987 12.2356L15.5715 16.6595L19.6526 14.9118L18.0789 13.9662L18.1067 13.9091C18.5756 12.9368 18.8669 11.8856 18.9639 10.8052C19.0909 9.39109 18.8816 7.96702 18.353 6.64931C17.8244 5.3316 16.9916 4.15763 15.9226 3.22333C14.8535 2.28903 13.5786 1.6209 12.202 1.27353C10.8571 0.934177 9.45248 0.910356 8.09767 1.20335L8.19265 2.28898Z" fill="#F7FAFF"/>
<path d="M11.81 17.7206C11.7937 17.7244 11.7774 17.7282 11.7611 17.7319C10.5429 18.0093 9.2763 17.9946 8.06487 17.6889C6.85344 17.3832 5.73152 16.7953 4.79076 15.9731C3.85001 15.1509 3.11712 14.1178 2.65197 12.9582C2.18682 11.7986 2.00261 10.5454 2.11438 9.30106C2.19677 8.38387 2.53641 7.48156 2.93427 6.65058L4.80397 7.77401L4.43112 3.3501L0.349998 5.09779L1.9237 6.04337L1.8959 6.10051C1.42708 7.07275 1.13576 8.12397 1.03871 9.20444C0.911694 10.6185 1.12103 12.0426 1.64961 13.3603C2.17819 14.678 3.01102 15.852 4.08006 16.7863C5.14909 17.7206 6.42401 18.3887 7.80063 18.7361C9.14549 19.0754 10.5501 19.0992 11.905 18.8063L11.81 17.7206Z" fill="#F7FAFF"/>
<circle cx="10" cy="10" r="3" fill="#78D62F"/>
</svg>
