<svg width="12" height="12" viewBox="0 0 12 12" fill="none" xmlns="http://www.w3.org/2000/svg">
<path fill-rule="evenodd" clip-rule="evenodd" d="M5.51012 1.02619C5.45659 1.03146 5.4032 1.03759 5.34997 1.04457L5.45716 0.0247306C6.42427 -0.0631297 7.39851 0.085051 8.29611 0.456847C9.2077 0.834442 10.0121 1.43103 10.6381 2.19376C11.264 2.9565 11.6922 3.86184 11.8847 4.82958C12.0772 5.79733 12.0281 6.79761 11.7416 7.74183C11.5528 8.36429 11.2647 8.94972 10.8904 9.47632C10.6969 9.74852 10.4804 10.005 10.2426 10.2428L11 11.0001L8.50001 11.0001L8.75001 8.75012L9.53412 9.53424C10.1153 8.95305 10.5442 8.2375 10.7828 7.45097C11.0214 6.66443 11.0623 5.8312 10.902 5.02506C10.7416 4.21893 10.3849 3.46478 9.86351 2.82943C9.34209 2.19407 8.67202 1.69711 7.91266 1.38257C7.1533 1.06804 6.32808 0.945627 5.51012 1.02619ZM6.48989 10.9741C6.54342 10.9688 6.59681 10.9627 6.65004 10.9557L6.54285 11.9755C5.57573 12.0634 4.6015 11.9152 3.7039 11.5434C2.7923 11.1658 1.9879 10.5692 1.36194 9.80648C0.735979 9.04375 0.307787 8.13841 0.115291 7.17066C-0.0772066 6.20292 -0.0280657 5.20263 0.25836 4.25841C0.447181 3.63595 0.735281 3.05052 1.10959 2.52393C1.30308 2.25172 1.51961 1.99523 1.75736 1.75748L1 1.00012L3.5 1.00012L3.25 3.25012L2.46588 2.466C1.88469 3.04719 1.45581 3.76274 1.21721 4.54928C0.978621 5.33581 0.937687 6.16905 1.09804 6.97518C1.25839 7.78131 1.61507 8.53546 2.1365 9.17082C2.65792 9.80618 3.32799 10.3031 4.08735 10.6177C4.84671 10.9322 5.67192 11.0546 6.48989 10.9741Z" fill="#F7FAFF"/>
<circle cx="6" cy="6.00012" r="2" fill="#FFB54D"/>
</svg>
