<svg width="36" height="36" viewBox="0 0 36 36" fill="none" xmlns="http://www.w3.org/2000/svg">
<rect x="3.50438" y="13.6111" width="15" height="26" transform="rotate(-45 3.50438 13.6111)" stroke="#F7FAFF"/>
<path fill-rule="evenodd" clip-rule="evenodd" d="M20.1537 4.09659L21.8896 5.8325L21.1825 6.53961L18.7076 4.06474L18.3541 3.71118L18.7076 3.35763L21.1825 0.882755L21.8896 1.58986L20.3641 3.11532C23.9955 4.2172 26.5704 5.53791 28.5035 7.5017C30.577 9.60796 31.8619 12.4032 32.9765 16.3021L32.015 16.577C30.9177 12.7384 29.6908 10.1332 27.7909 8.20323C26.0345 6.41906 23.6599 5.1685 20.1537 4.09659Z" fill="#1A90FF"/>
<path fill-rule="evenodd" clip-rule="evenodd" d="M15.8469 30.9034L14.111 29.1675L14.8181 28.4604L17.293 30.9353L17.6465 31.2888L17.293 31.6424L14.8181 34.1172L14.111 33.4101L15.6364 31.8847C12.005 30.7828 9.43023 29.4621 7.49705 27.4983C5.42362 25.392 4.13866 22.5968 3.02407 18.6979L3.98555 18.423C5.08289 22.2616 6.3098 24.8668 8.20969 26.7968C9.96605 28.5809 12.3406 29.8315 15.8469 30.9034Z" fill="#1A90FF"/>
</svg>
