<svg width="32" height="32" viewBox="0 0 32 32" fill="none" xmlns="http://www.w3.org/2000/svg">
<rect width="32" height="32" fill="#1B1E38"/>
<path fill-rule="evenodd" clip-rule="evenodd" d="M15.5 22C19.0899 22 22 19.0899 22 15.5C22 11.9101 19.0899 9 15.5 9C11.9101 9 9 11.9101 9 15.5C9 19.0899 11.9101 22 15.5 22ZM15.5 23C19.6421 23 23 19.6421 23 15.5C23 11.3579 19.6421 8 15.5 8C11.3579 8 8 11.3579 8 15.5C8 19.6421 11.3579 23 15.5 23Z" fill="#F7FAFF"/>
<path d="M13.5 14C13.5 12.8954 14.3954 12 15.5 12C16.6046 12 17.5 12.8954 17.5 14C17.5 15.1046 16.6046 16 15.5 16V18M15.5 19V20" stroke="#B6B8CD"/>
</svg>
