<svg width="32" height="32" viewBox="0 0 32 32" fill="none" xmlns="http://www.w3.org/2000/svg">
<rect width="32" height="32" fill="#373A58"/>
<path fill-rule="evenodd" clip-rule="evenodd" d="M10.5907 15.5C11.0609 12.9399 13.3039 11 16 11C19.0376 11 21.5 13.4624 21.5 16.5C21.5 19.5376 19.0376 22 16 22C15.2169 22 14.4732 21.8366 13.8002 21.5426L13.3998 22.4589C14.1967 22.8071 15.0765 23 16 23C19.5899 23 22.5 20.0899 22.5 16.5C22.5 12.9101 19.5899 10 16 10C12.7502 10 10.0575 12.3849 9.57645 15.5H8L10 18.5L12 15.5H10.5907Z" fill="#F7FAFF"/>
</svg>
