<svg width="12" height="12" viewBox="0 0 12 12" fill="none" xmlns="http://www.w3.org/2000/svg">
<path fill-rule="evenodd" clip-rule="evenodd" d="M3.58579 5.41421L2 7V8V9H3H4L5.58579 7.41421L4.87868 6.70711L3.58579 8H3V7.41421L4.29289 6.12132L3.58579 5.41421ZM7.70711 3.87868L8.58579 3L8 2.41421L7.12132 3.29289L6.41422 2.58579L7.29289 1.70711L8 1L8.70711 1.70711L9.2929 2.29289L10 3L9.2929 3.70711L8.41422 4.58579L7.70711 3.87868ZM11 11H1V10H11V11ZM2.5 2L9.57107 9.07107L10.2782 8.36396L3.20711 1.29289L2.5 2Z" fill="#F7FAFF"/>
</svg>
