<svg xmlns="http://www.w3.org/2000/svg" width="10" height="10" fill="none" viewBox="0 0 10 10"><path fill="#B6B8CD" fill-rule="evenodd" d="M4.66666 0H3.9459L3.71798 0.683772L3.51796 1.28382C3.48516 1.29691 3.45258 1.31042 3.42022 1.32435L2.85446 1.04147L2.20979 0.719136L1.70014 1.22879L1.22874 1.70019L0.719083 2.20985L1.04142 2.85451L1.32431 3.4203C1.3104 3.45264 1.2969 3.4852 1.28382 3.51797L0.683772 3.71799L0 3.94591V4.66667V5.33334V6.0541L0.683772 6.28202L1.28383 6.48204C1.2969 6.51481 1.3104 6.54736 1.32431 6.57969L1.04139 7.14552L0.719056 7.79018L1.22871 8.29984L1.70011 8.77124L2.20977 9.2809L2.85443 8.95856L3.42024 8.67566C3.45259 8.68958 3.48517 8.70309 3.51796 8.71618L3.71798 9.31623L3.9459 10H4.66666H5.33333H6.05409L6.28201 9.31623L6.48203 8.71618C6.5148 8.7031 6.54736 8.6896 6.5797 8.67569L7.14548 8.95858L7.79015 9.28092L8.2998 8.77126L8.77121 8.29986L9.28086 7.7902L8.95853 7.14554L8.67565 6.57978C8.68958 6.54742 8.70308 6.51484 8.71617 6.48204L9.31623 6.28202L10 6.0541V5.33334V4.66667V3.94591L9.31623 3.71799L8.71618 3.51797C8.70309 3.48517 8.68957 3.45257 8.67565 3.4202L8.9585 2.8545L9.28084 2.20983L8.77118 1.70017L8.29978 1.22877L7.79012 0.719117L7.14546 1.04145L6.57972 1.32432C6.54738 1.31041 6.51481 1.2969 6.48203 1.28382L6.28201 0.683773L6.05409 0H5.33333H4.66666ZM4.30648 2.08056C3.99088 2.15525 3.69455 2.27979 3.42628 2.44541L2.95515 2.20985L2.64295 2.05375L2.40725 1.9359L1.93584 2.4073L2.05369 2.643L2.20979 2.9552L2.44537 3.42635C2.27977 3.69461 2.15524 3.99091 2.08056 4.30649L1.58114 4.47296L1.25 4.58334L1 4.66667V5.33334L1.25 5.41667L1.58114 5.52705L2.08056 5.69353C2.15525 6.00909 2.27977 6.30539 2.44536 6.57364L2.20977 7.04483L2.05367 7.35703L1.93582 7.59273L2.40722 8.06414L2.64292 7.94628L2.95512 7.79018L3.4263 7.5546C3.69457 7.72021 3.99088 7.84475 4.30648 7.91944L4.47295 8.41886L4.58333 8.75L4.66666 9H5.33333L5.41666 8.75L5.52704 8.41886L5.69352 7.91944C6.00909 7.84475 6.30539 7.72023 6.57365 7.55463L7.04479 7.7902L7.357 7.9463L7.5927 8.06416L8.0641 7.59275L7.94625 7.35705L7.79015 7.04485L7.55459 6.57372C7.7202 6.30545 7.84475 6.00913 7.91944 5.69353L8.41886 5.52705L8.75 5.41667L9 5.33334V4.66667L8.75 4.58334L8.41886 4.47296L7.91944 4.30649C7.84475 3.99088 7.7202 3.69455 7.55458 3.42627L7.79012 2.95518L7.94622 2.64298L8.06408 2.40728L7.59267 1.93588L7.35697 2.05373L7.04477 2.20983L6.57367 2.44538C6.30541 2.27978 6.0091 2.15525 5.69352 2.08056L5.52704 1.58114L5.41666 1.25L5.33333 1H4.66666L4.58333 1.25L4.47295 1.58114L4.30648 2.08056ZM5.60897 5.03226C5.60897 5.37683 5.33314 5.64516 5.00641 5.64516C4.67968 5.64516 4.40385 5.37683 4.40385 5.03226C4.40385 4.68769 4.67968 4.41935 5.00641 4.41935C5.33314 4.41935 5.60897 4.68769 5.60897 5.03226ZM6.60897 5.03226C6.60897 5.92304 5.89148 6.64516 5.00641 6.64516C4.12134 6.64516 3.40385 5.92304 3.40385 5.03226C3.40385 4.14148 4.12134 3.41935 5.00641 3.41935C5.89148 3.41935 6.60897 4.14148 6.60897 5.03226Z" clip-rule="evenodd"/></svg>