<svg width="36" height="36" viewBox="0 0 36 36" fill="none" xmlns="http://www.w3.org/2000/svg">
<path d="M9.03943 11.6992L9.04027 11.6992C9.09056 11.6993 9.12767 11.7043 9.15351 11.7107L9.16076 11.7125L9.16807 11.7141C10.2088 11.9412 10.9769 12.2178 11.6254 12.8379C12.5935 13.7635 13.3565 15.11 13.3664 16.4346L13.233 17.8852L13.1106 19.2158L14.0764 18.2924L23.7002 9.09088L23.3588 8.73379L23.7002 9.09088C24.1606 8.65067 24.6838 8.47467 25.1973 8.50291C25.7178 8.53154 26.2663 8.77298 26.7511 9.23655C27.2362 9.70033 27.4634 10.1998 27.4815 10.6588C27.4994 11.1109 27.3176 11.5924 26.8495 12.0399L22.3992 16.295L21.3554 17.2929L22.7928 17.1541C23.1874 17.1159 23.599 17.1028 23.9742 17.1615C24.3486 17.2201 24.6516 17.3446 24.869 17.5525C24.9146 17.5961 24.9795 17.687 25.0521 17.8424C25.122 17.992 25.186 18.1731 25.2434 18.3697C25.3582 18.7632 25.4343 19.1777 25.4807 19.4466L25.486 19.4773L25.495 19.5072L27.4228 25.8474C27.6255 26.5846 27.4303 27.3987 26.8243 27.978L23.4977 31.1587C20.0913 34.4156 15.0294 34.2174 11.5805 30.9199C9.85043 29.2657 8.57426 27.4291 8.52342 25.4373L8.51302 25.0296L8.5 12.1938L8.5 12.1929C8.49926 11.9404 8.719 11.6984 9.03943 11.6992Z" stroke="#F7FAFF"/>
<path fill-rule="evenodd" clip-rule="evenodd" d="M31 9C31 10.8029 29.8072 12.3273 28.1677 12.8269C28.0802 12.9291 27.9863 13.0283 27.8861 13.1241L26.9701 13.9999L27 14C29.7614 14 32 11.7614 32 9C32 6.23858 29.7614 4 27 4C24.3636 4 22.2039 6.04037 22.0136 8.62814L22.6636 8.00669C22.8583 7.82052 23.0649 7.65991 23.2807 7.52506C23.8678 6.04588 25.3118 5 27 5C29.2091 5 31 6.79086 31 9ZM15 12C15 12.8388 14.7935 13.6293 14.4285 14.3235C14.263 13.917 14.0581 13.53 13.8265 13.1688C13.9393 12.7991 14 12.4066 14 12C14 9.79086 12.2091 8 10 8C7.79086 8 6 9.79086 6 12C6 13.0158 6.37865 13.9432 7.0025 14.6487L7.00387 16.0033C5.78722 15.0912 5 13.6376 5 12C5 9.23858 7.23858 7 10 7C12.7614 7 15 9.23858 15 12Z" fill="#1A90FF"/>
</svg>
